<?xml version="1.0" standalone="no"?>
<!DOCTYPE svg PUBLIC "-//W3C//DTD SVG 20010904//EN"
 "http://www.w3.org/TR/2001/REC-SVG-20010904/DTD/svg10.dtd">
<svg version="1.0" xmlns="http://www.w3.org/2000/svg"
 width="402.000000pt" height="346.000000pt" viewBox="0 0 402.000000 346.000000"
 preserveAspectRatio="xMidYMid meet">

<g transform="translate(0.000000,346.000000) scale(0.100000,-0.100000)"
fill="#000000" stroke="none">
<path d="M1349 2234 c-68 -28 -74 -51 -74 -294 l0 -215 1078 -3 1077 -2 0 219
c0 121 -4 231 -10 245 -5 14 -27 34 -49 45 -39 20 -54 21 -1013 20 -833 0
-978 -2 -1009 -15z m1769 -79 c19 -7 14 -43 -8 -55 -13 -7 -262 -10 -760 -10
-732 0 -741 1 -761 21 -16 16 -18 23 -9 35 10 11 80 14 404 16 471 4 1116 -1
1134 -7z m246 -10 c3 -8 -1 -20 -8 -27 -11 -10 -11 -15 0 -26 19 -18 2 -58
-22 -54 -32 6 -50 30 -38 50 8 12 8 22 0 35 -8 14 -8 20 4 27 23 15 57 12 64
-5z m-236 -157 c3 -22 -2 -28 -20 -33 -13 -3 -360 -4 -773 -3 l-750 3 -3 24
c-2 13 2 28 10 32 7 5 355 8 773 6 l760 -2 3 -27z"/>
<path d="M750 1753 c0 -5 20 -56 43 -113 178 -429 432 -757 841 -1087 46 -38
208 -138 276 -173 200 -101 436 -158 600 -146 85 6 195 32 241 57 114 63 202
142 193 174 -4 15 -3 16 4 6 12 -17 27 4 71 99 56 119 73 207 73 380 0 85 -5
166 -10 180 -9 20 -11 11 -11 -50 -2 -174 -88 -356 -210 -444 -207 -148 -524
-121 -846 72 -100 61 -251 178 -353 276 -83 80 -131 118 -152 121 -36 6 -230
132 -344 223 -140 113 -224 197 -360 365 -31 38 -56 65 -56 60z"/>
<path d="M3072 1180 c0 -14 2 -19 5 -12 2 6 2 18 0 25 -3 6 -5 1 -5 -13z"/>
</g>
</svg>
