<?xml version="1.0" standalone="no"?>
<!DOCTYPE svg PUBLIC "-//W3C//DTD SVG 20010904//EN"
 "http://www.w3.org/TR/2001/REC-SVG-20010904/DTD/svg10.dtd">
<svg version="1.0" xmlns="http://www.w3.org/2000/svg"
 width="500.000000pt" height="500.000000pt" viewBox="0 0 500.000000 500.000000"
 preserveAspectRatio="xMidYMid meet">

<g transform="translate(0.000000,500.000000) scale(0.100000,-0.100000)"
fill="#000000" stroke="none">
<path d="M3839 4250 c-48 -25 -106 -94 -121 -142 l-11 -37 -1256 -3 -1256 -3
-99 -27 c-348 -96 -596 -343 -698 -695 -20 -67 -23 -100 -22 -243 0 -139 4
-178 22 -245 90 -324 343 -583 667 -682 99 -30 260 -42 584 -41 l234 1 21 -29
c67 -95 178 -195 269 -240 300 -152 662 -81 876 171 24 28 53 62 65 77 l23 26
291 -3 c276 -3 295 -5 337 -25 177 -86 178 -334 2 -419 -43 -21 -47 -21 -1260
-21 l-1216 0 -11 39 c-14 51 -80 125 -131 145 -52 21 -144 22 -191 3 -20 -8
-54 -31 -76 -51 -70 -64 -72 -78 -72 -504 0 -255 4 -387 12 -413 15 -52 68
-113 121 -138 58 -28 162 -29 216 -1 49 25 108 93 123 142 l11 37 1256 4
c1250 3 1256 3 1336 24 359 97 605 332 712 680 25 81 27 101 27 263 0 162 -2
182 -27 263 -107 346 -365 589 -727 683 -53 14 -129 18 -407 21 l-342 5 -15
22 c-57 89 -169 190 -265 240 -196 103 -461 107 -653 10 -106 -53 -218 -149
-274 -234 l-27 -40 -306 0 c-347 0 -357 2 -422 79 -78 90 -78 212 0 302 72 85
-39 79 1333 79 l1217 0 12 -41 c17 -54 79 -123 131 -144 52 -20 144 -21 191
-1 19 8 53 30 75 50 70 64 72 78 72 504 0 255 -4 387 -12 413 -15 52 -68 113
-121 138 -58 28 -166 28 -218 1z m187 -144 l34 -34 0 -372 0 -372 -34 -34
c-46 -46 -101 -48 -148 -5 l-33 29 -3 359 c-2 239 0 370 8 395 13 44 48 67
104 68 30 0 45 -7 72 -34z m-316 -406 l0 -230 -1201 0 c-1323 0 -1271 2 -1371
-62 -58 -37 -100 -83 -136 -151 -24 -47 -27 -62 -27 -157 0 -101 1 -108 34
-168 42 -77 113 -142 190 -173 53 -22 72 -23 339 -27 258 -3 282 -5 278 -20
-25 -86 -30 -120 -30 -207 0 -90 11 -169 30 -218 6 -17 -8 -18 -312 -15 -365
5 -376 6 -542 89 -275 137 -462 436 -462 737 0 339 210 648 529 777 133 55 90
53 1434 54 l1247 1 0 -230z m-1057 -636 c210 -54 374 -222 421 -431 71 -316
-120 -626 -431 -699 -91 -22 -244 -14 -332 17 -175 60 -320 215 -375 398 -21
72 -21 230 0 302 56 189 206 343 393 404 92 29 230 33 324 9z m1177 -349 c321
-68 585 -331 651 -650 91 -438 -185 -870 -624 -975 -79 -19 -122 -20 -1324
-20 l-1243 0 0 230 0 230 1201 0 c1323 0 1271 -2 1371 62 61 39 105 89 137
158 22 47 26 69 26 150 0 88 -3 101 -33 162 -39 81 -112 148 -192 180 -51 21
-75 22 -332 26 -153 2 -278 5 -278 7 0 2 7 32 16 67 22 83 22 234 1 316 -10
35 -17 66 -17 68 0 2 128 4 284 4 215 0 302 -4 356 -15z m-2708 -1004 l33 -29
3 -359 c2 -225 -1 -371 -7 -393 -13 -43 -54 -70 -106 -70 -29 0 -45 8 -71 34
l-34 34 0 372 0 372 34 34 c46 46 101 48 148 5z"/>
<path d="M2462 3020 c-21 -19 -22 -30 -22 -155 0 -122 -2 -134 -19 -140 -46
-14 -103 -68 -127 -118 -96 -207 108 -418 311 -323 126 58 174 222 99 342 -16
27 -45 59 -64 71 -72 46 -71 41 -69 178 2 108 0 128 -16 145 -23 26 -65 26
-93 0z m88 -425 c32 -17 60 -61 60 -95 0 -34 -28 -78 -60 -95 -38 -20 -58 -19
-96 4 -67 41 -70 135 -5 178 40 27 61 29 101 8z"/>
</g>
</svg>
