<?xml version="1.0" standalone="no"?>
<!DOCTYPE svg PUBLIC "-//W3C//DTD SVG 20010904//EN"
 "http://www.w3.org/TR/2001/REC-SVG-20010904/DTD/svg10.dtd">
<svg version="1.0" xmlns="http://www.w3.org/2000/svg"
 width="106.000000pt" height="120.000000pt" viewBox="0 0 106.000000 120.000000"
 preserveAspectRatio="xMidYMid meet">

<g transform="translate(0.000000,120.000000) scale(0.100000,-0.100000)"
fill="#000000" stroke="none">
<path d="M505 981 c-3 -5 4 -12 15 -16 11 -3 29 -18 40 -32 17 -22 20 -40 20
-129 l0 -103 33 -24 c17 -13 53 -36 79 -51 65 -37 78 -58 78 -133 0 -37 4 -63
10 -63 7 0 10 30 8 82 l-3 83 -47 30 c-27 16 -68 42 -93 57 l-45 27 0 115 0
115 -37 26 c-41 27 -49 30 -58 16z"/>
<path d="M490 953 c0 -6 9 -17 21 -25 20 -13 21 -22 20 -134 -2 -139 -9 -127
117 -199 l82 -47 0 -59 c0 -33 4 -59 10 -59 15 0 12 123 -2 142 -7 8 -45 34
-84 56 -39 23 -76 47 -82 55 -6 7 -13 60 -14 121 l-3 108 -32 26 c-18 13 -33
20 -33 15z"/>
<path d="M403 878 c-69 -40 -88 -58 -61 -58 15 0 158 83 158 93 0 15 -27 5
-97 -35z"/>
<path d="M432 846 c-59 -33 -71 -45 -67 -61 2 -11 5 -62 5 -113 l0 -94 68 38
c37 20 70 42 74 48 10 14 10 226 1 225 -5 -1 -41 -20 -81 -43z"/>
<path d="M250 833 c0 -5 14 -16 30 -25 41 -23 50 -53 50 -162 0 -106 -3 -101
100 -161 36 -20 68 -42 72 -49 4 -6 8 -44 8 -84 0 -54 3 -73 12 -70 18 6 23
145 7 164 -7 8 -43 33 -80 55 -101 59 -99 55 -99 170 0 55 -5 109 -10 120 -16
29 -90 63 -90 42z"/>
<path d="M240 618 l1 -193 122 -70 c67 -38 125 -71 129 -73 13 -6 9 123 -5
140 -6 8 -41 32 -77 53 -104 61 -100 54 -100 169 0 106 -9 134 -51 156 -19 10
-19 6 -19 -182z"/>
<path d="M453 603 c-35 -19 -63 -38 -63 -41 0 -4 21 -18 47 -32 26 -14 63 -35
81 -48 l34 -23 65 38 c36 21 66 42 66 48 -1 5 -14 16 -29 25 -16 8 -50 27 -76
43 -26 15 -50 27 -55 26 -4 0 -36 -16 -70 -36z"/>
<path d="M661 499 c-19 -11 -51 -29 -70 -40 -32 -17 -35 -22 -32 -56 1 -21 4
-39 6 -41 1 -2 35 16 74 39 68 41 71 45 71 81 0 44 -3 45 -49 17z"/>
<path d="M740 393 c0 -7 9 -13 20 -13 11 0 20 6 20 13 0 7 -9 13 -20 13 -11 0
-20 -6 -20 -13z"/>
<path d="M240 386 c0 -9 7 -16 16 -16 17 0 14 22 -4 28 -7 2 -12 -3 -12 -12z"/>
<path d="M490 243 c0 -7 9 -13 20 -13 11 0 20 6 20 14 0 9 -9 14 -20 13 -11
-1 -20 -7 -20 -14z"/>
</g>
</svg>
