<?xml version="1.0" standalone="no"?>
<!DOCTYPE svg PUBLIC "-//W3C//DTD SVG 20010904//EN"
 "http://www.w3.org/TR/2001/REC-SVG-20010904/DTD/svg10.dtd">
<svg version="1.0" xmlns="http://www.w3.org/2000/svg"
 width="450.000000pt" height="450.000000pt" viewBox="0 0 450.000000 450.000000"
 preserveAspectRatio="xMidYMid meet">

<g transform="translate(0.000000,450.000000) scale(0.100000,-0.100000)"
fill="#000000" stroke="none">
<path d="M2369 4073 c-13 -15 -12 -15 8 -5 32 18 51 15 78 -13 31 -30 32 -58
4 -86 -17 -17 -29 -20 -63 -16 -37 5 -39 4 -22 -8 12 -9 23 -38 31 -77 l12
-63 8 54 c6 41 15 61 41 87 42 41 46 89 11 122 -28 27 -88 30 -108 5z"/>
<path d="M2333 3783 c-7 -2 -13 -13 -13 -24 0 -35 -27 -84 -55 -103 -15 -10
-71 -26 -125 -35 -112 -21 -115 -22 -136 -63 -20 -38 -14 -61 37 -146 65 -106
263 -401 267 -397 7 6 -124 232 -217 374 -15 24 -15 24 8 12 19 -10 15 -1 -20
48 -23 33 -40 63 -37 66 3 3 22 -8 43 -25 45 -36 57 -39 27 -7 -35 37 -27 38
41 7 93 -42 121 -46 48 -6 -80 44 -98 61 -56 52 61 -15 357 -19 447 -6 49 6
92 10 95 7 3 -3 -18 -17 -46 -31 -66 -34 -65 -41 1 -16 56 21 68 20 47 -6 -13
-16 -12 -16 10 -5 41 22 14 -7 -51 -55 -72 -53 -64 -57 16 -9 32 19 60 35 63
35 2 0 21 12 40 27 l36 28 -13 -25 c-7 -14 -57 -102 -111 -196 -86 -152 -139
-256 -139 -272 0 -3 31 44 68 104 38 60 93 147 123 194 92 143 111 180 111
217 0 57 -31 79 -145 103 -54 11 -107 25 -118 30 -28 15 -59 69 -59 103 l0 27
-87 -1 c-49 0 -94 -3 -100 -6z m164 -58 c14 -41 45 -80 77 -97 10 -6 60 -20
110 -32 l91 -23 -45 -13 c-92 -28 -670 -10 -670 20 0 4 39 16 86 26 48 9 101
27 118 39 28 19 57 63 70 108 5 15 16 17 77 15 l72 -3 14 -40z"/>
<path d="M2303 2989 c-105 -91 -156 -154 -192 -231 -48 -101 -71 -210 -70
-320 l1 -83 14 100 c24 177 75 293 196 444 37 46 68 88 68 93 0 10 -2 10 -17
-3z"/>
<path d="M2500 2990 c-14 -4 -47 -8 -73 -9 -33 -1 -46 -5 -41 -12 5 -8 32 -10
85 -6 l78 6 29 -42 c38 -55 78 -157 92 -234 14 -78 1 -166 -36 -241 -32 -65
-120 -158 -189 -198 -58 -34 -39 -47 23 -15 53 27 97 65 143 124 22 27 39 46
39 43 0 -19 -59 -119 -102 -173 -90 -113 -215 -205 -353 -259 -82 -32 -99 -44
-63 -44 43 0 142 35 215 75 86 48 206 168 261 260 23 39 42 63 42 55 0 -22
-66 -147 -103 -194 -49 -65 -53 -73 -24 -46 15 13 52 60 82 104 30 44 55 76
55 70 0 -5 5 -2 10 6 22 34 8 -15 -24 -84 -58 -125 -133 -223 -246 -321 -28
-24 -34 -32 -15 -20 17 10 54 39 84 64 160 135 258 320 299 561 9 54 9 53 11
-40 1 -84 -13 -177 -35 -234 -5 -14 -4 -17 4 -12 21 13 13 -23 -23 -102 -24
-53 -29 -70 -15 -53 26 31 25 15 -4 -62 -33 -88 -70 -160 -128 -245 -61 -91
-49 -86 26 11 76 100 140 214 178 321 18 49 34 84 36 78 7 -22 -29 -184 -64
-284 -106 -305 -295 -552 -641 -839 -146 -122 -203 -178 -91 -90 207 163 270
213 327 266 l64 60 -8 -295 c-4 -162 -10 -333 -14 -380 l-6 -85 -60 -2 c-102
-4 -257 -25 -248 -33 38 -37 648 -38 686 -1 10 10 -160 31 -247 31 -36 0 -67
4 -70 8 -3 5 -10 178 -16 385 l-12 376 86 102 c225 267 336 512 366 807 29
285 -64 588 -238 774 -39 41 -92 81 -104 77 -2 -1 -14 -5 -28 -9z"/>
<path d="M2535 1867 c-49 -51 -142 -131 -205 -178 -63 -47 -168 -125 -233
-173 -299 -221 -435 -408 -468 -641 -17 -124 22 -272 99 -373 13 -17 28 -32
32 -32 9 0 23 121 21 186 -1 32 6 71 19 103 11 29 16 50 11 47 -4 -3 -14 -19
-21 -36 -7 -16 -17 -30 -22 -30 -21 0 21 162 63 240 22 42 24 49 7 30 -60 -70
-115 -252 -104 -344 6 -56 2 -56 -18 0 -14 39 -15 39 -16 9 l-1 -30 -11 25
c-18 42 -14 217 6 285 57 193 201 365 496 595 195 150 310 250 365 317 27 32
55 66 63 76 34 39 2 10 -83 -76z"/>
</g>
</svg>
