<?xml version="1.0" standalone="no"?>
<!DOCTYPE svg PUBLIC "-//W3C//DTD SVG 20010904//EN"
 "http://www.w3.org/TR/2001/REC-SVG-20010904/DTD/svg10.dtd">
<svg version="1.0" xmlns="http://www.w3.org/2000/svg"
 width="360.000000pt" height="360.000000pt" viewBox="0 0 360.000000 360.000000"
 preserveAspectRatio="xMidYMid meet">

<g transform="translate(0.000000,360.000000) scale(0.100000,-0.100000)"
fill="#000000" stroke="none">
<path d="M1455 2273 c-11 -3 -86 -25 -167 -49 -136 -41 -151 -43 -200 -33
-216 42 -364 41 -441 -4 -50 -30 -137 -105 -137 -118 0 -6 -10 -23 -22 -40
-19 -26 -21 -34 -11 -69 9 -36 8 -41 -13 -61 -13 -13 -24 -28 -24 -34 0 -18
453 -145 467 -131 2 2 -20 9 -49 16 -52 12 -355 108 -371 117 -5 3 -1 13 9 24
12 14 15 28 10 62 -6 38 -3 48 23 84 16 23 42 49 56 60 14 10 40 30 58 45 17
16 47 31 67 35 63 14 213 7 326 -15 l111 -22 114 34 c205 61 226 66 297 66 68
0 219 -32 292 -62 l34 -14 -79 -59 c-79 -58 -79 -58 -119 -46 -130 37 -443 97
-454 87 -2 -2 59 -18 135 -36 76 -18 189 -48 251 -66 l113 -34 104 77 c103 77
119 93 91 93 -8 0 -17 4 -20 9 -8 12 60 -3 157 -35 85 -28 102 -43 22 -19 -94
29 -140 14 -245 -76 -24 -20 -24 -20 14 2 l38 22 -11 -22 c-7 -12 -9 -31 -5
-44 7 -21 8 -20 14 8 5 28 8 30 45 27 51 -4 100 -19 114 -36 9 -11 -1 -15 -53
-21 -36 -3 -69 -12 -75 -18 -12 -16 153 -7 169 9 31 31 -44 84 -134 94 l-61 7
47 22 c42 19 52 20 95 10 71 -17 180 -72 246 -124 90 -71 87 -72 -118 -50 -40
4 -33 0 40 -20 139 -38 179 -32 158 25 -13 35 -17 37 72 -34 39 -31 75 -56 82
-56 6 0 19 -10 27 -21 8 -12 25 -27 38 -33 15 -8 22 -19 20 -33 -2 -12 4 -35
12 -52 9 -16 16 -41 16 -55 0 -33 -37 -132 -63 -171 l-21 -30 21 18 c23 20 61
101 74 156 5 23 3 49 -7 78 -8 24 -12 52 -9 62 6 20 -18 51 -40 51 -7 0 -15 7
-18 15 -4 8 -23 25 -44 38 -21 14 -87 68 -148 121 -166 145 -280 196 -550 247
-108 20 -330 34 -370 22z"/>
<path d="M1023 2080 c-70 -15 -131 -56 -111 -75 2 -3 52 -12 111 -20 l106 -16
63 26 c35 14 75 31 91 37 15 5 27 14 27 19 0 25 -207 46 -287 29z m215 -29 c9
-5 -4 -15 -39 -31 -47 -20 -64 -22 -138 -16 -132 10 -142 28 -31 53 55 12 182
9 208 -6z"/>
<path d="M3320 2018 c-64 -44 -74 -68 -81 -191 -6 -124 -9 -131 -55 -199 -18
-26 -46 -90 -64 -143 -17 -52 -40 -105 -50 -117 -24 -30 -69 -27 -153 11 -129
58 -268 83 -352 63 l-40 -10 53 -1 c88 -2 191 -30 300 -82 179 -86 229 -67
289 112 17 52 47 121 67 153 44 73 50 105 43 214 -7 101 4 135 59 180 44 37
33 43 -16 10z"/>
<path d="M3007 1998 c-14 -18 -48 -71 -77 -118 -29 -47 -63 -98 -74 -113 -25
-34 -94 -77 -124 -77 -11 0 -24 -5 -28 -12 -10 -16 72 -2 116 21 19 10 52 40
73 67 35 46 153 264 143 264 -3 0 -16 -15 -29 -32z"/>
<path d="M575 1991 c11 -5 79 -23 150 -41 72 -18 134 -37 139 -41 12 -10 -39
-59 -61 -59 -10 0 -65 11 -123 25 -57 13 -106 22 -108 20 -6 -6 169 -57 213
-62 47 -6 87 20 103 66 l11 30 -72 16 c-100 23 -258 55 -266 54 -3 0 3 -4 14
-8z"/>
<path d="M1320 1959 c-36 -15 -78 -58 -103 -104 -29 -53 -31 -187 -4 -228 22
-33 21 -33 -5 -40 -34 -9 -50 11 -43 54 6 32 3 39 -15 49 -18 10 -29 9 -55 -6
-38 -20 -62 -14 -67 17 -2 12 -10 26 -19 32 -17 10 -70 2 -68 -11 7 -47 -34
-68 -62 -31 -15 20 -21 22 -46 13 -23 -8 -28 -15 -28 -44 0 -50 -11 -62 -50
-54 -28 5 -36 2 -51 -20 -16 -26 -16 -28 7 -52 18 -20 21 -29 13 -42 -6 -9
-21 -18 -33 -20 -24 -4 -44 -42 -35 -66 3 -8 19 -18 35 -21 36 -8 39 -38 8
-71 -21 -22 -21 -24 -5 -49 14 -22 22 -25 47 -20 38 9 63 -14 50 -47 -10 -29
-5 -45 21 -59 16 -9 24 -6 43 11 30 28 61 19 70 -20 11 -51 66 -51 84 1 12 35
41 39 71 9 17 -17 24 -18 45 -8 21 10 26 18 23 44 -3 44 16 66 49 53 33 -12
67 14 60 47 -4 22 -1 22 147 29 83 4 270 5 416 3 l265 -3 45 -31 c25 -18 54
-42 65 -54 53 -59 180 -93 265 -70 59 15 120 55 120 79 0 20 -18 24 -167 37
l-72 7 -47 70 c-32 49 -41 68 -28 62 54 -21 78 -24 108 -11 37 16 77 59 95
101 l12 30 -23 -27 c-43 -49 -99 -63 -118 -29 -16 32 -12 123 8 148 20 26 142
49 154 29 6 -8 8 -8 8 0 0 7 11 15 25 18 36 9 33 45 -5 59 -16 6 -30 18 -30
25 0 8 -15 29 -34 48 -29 29 -41 34 -80 34 -26 0 -60 -7 -75 -15 -32 -16 -101
-92 -101 -111 0 -19 -79 -85 -128 -106 -42 -19 -59 -20 -231 -15 -102 4 -202
9 -221 11 l-35 5 33 -8 c64 -17 44 -21 -91 -21 -76 0 -137 3 -137 6 0 3 11 19
25 36 14 16 25 34 25 40 0 6 -9 -1 -20 -15 -26 -33 -82 -52 -109 -37 -83 44
-16 310 78 310 32 0 53 -20 76 -70 l16 -35 -6 40 c-8 45 -27 86 -49 104 -21
17 -85 23 -116 10z m-262 -409 c53 -32 74 -75 69 -143 -3 -49 -8 -62 -37 -92
-60 -62 -140 -70 -205 -21 -37 28 -65 81 -65 122 0 46 36 108 77 132 49 28
117 29 161 2z m940 -72 c16 -16 15 -43 0 -56 -10 -8 -553 -20 -615 -13 -24 2
-33 36 -17 59 15 22 19 22 318 22 221 0 305 -3 314 -12z"/>
<path d="M960 1955 c0 -2 27 -11 60 -21 l59 -16 7 -47 c14 -92 11 -116 -13
-119 -25 -4 -32 -22 -9 -22 21 0 66 40 66 59 0 9 -9 45 -21 79 -18 53 -25 62
-52 71 -42 12 -97 22 -97 16z"/>
<path d="M645 1926 c37 -18 131 -39 148 -33 14 5 -80 33 -138 41 l-40 6 30
-14z"/>
<path d="M1860 1906 c91 -17 353 -40 395 -34 49 6 -217 39 -349 43 l-121 4 75
-13z"/>
<path d="M455 1710 c-7 -22 -20 -26 -30 -10 -3 6 -15 10 -25 10 -13 0 -20 -8
-22 -27 -2 -22 -8 -28 -28 -28 -23 0 -25 -4 -23 -37 2 -27 -2 -38 -11 -38 -16
0 -25 -19 -19 -37 3 -7 11 -13 19 -13 16 0 19 -21 4 -36 -17 -17 0 -44 26 -44
19 0 24 -5 24 -25 0 -28 25 -44 43 -26 16 16 24 14 30 -9 3 -12 14 -20 25 -20
12 0 23 9 27 20 7 22 20 26 30 10 3 -5 15 -10 25 -10 13 0 20 8 22 28 2 22 7
26 26 24 26 -4 40 22 22 43 -14 16 -5 35 16 35 20 0 18 37 -3 49 -16 9 -16 13
-5 31 15 25 0 52 -27 48 -10 -2 -17 6 -20 22 -4 32 -20 41 -44 28 -19 -10 -36
2 -37 25 0 16 -39 6 -45 -13z m73 -100 c30 -28 36 -62 18 -98 -17 -33 -34 -42
-77 -42 -35 0 -79 39 -79 70 0 26 25 77 42 83 30 12 75 6 96 -13z"/>
<path d="M2850 1666 c-30 -13 -84 -38 -120 -54 l-65 -31 41 -1 c45 0 167 55
199 90 23 25 13 25 -55 -4z"/>
<path d="M1622 1665 c140 -25 434 -47 417 -31 -9 9 -262 36 -374 40 l-120 5
77 -14z"/>
<path d="M2668 1545 c-16 -9 -28 -17 -28 -18 0 -1 24 -1 52 1 42 3 67 -3 120
-27 120 -54 175 -53 208 2 29 46 25 64 -6 28 -33 -39 -71 -41 -157 -5 -79 32
-153 40 -189 19z"/>
</g>
</svg>
