<?xml version="1.0" standalone="no"?>
<!DOCTYPE svg PUBLIC "-//W3C//DTD SVG 20010904//EN"
 "http://www.w3.org/TR/2001/REC-SVG-20010904/DTD/svg10.dtd">
<svg version="1.0" xmlns="http://www.w3.org/2000/svg"
 width="1200.000000pt" height="1200.000000pt" viewBox="0 0 1200.000000 1200.000000"
 preserveAspectRatio="xMidYMid meet">

<g transform="translate(0.000000,1200.000000) scale(0.100000,-0.100000)"
fill="#000000" stroke="none">
<path d="M5680 9400 c-137 -29 -286 -104 -580 -295 -19 -13 -165 -105 -325
-205 -159 -100 -306 -193 -325 -205 -19 -13 -246 -154 -503 -314 -257 -161
-500 -313 -540 -338 -143 -92 -234 -150 -341 -218 -170 -108 -214 -163 -234
-288 -29 -184 86 -337 276 -367 67 -11 184 0 253 24 87 31 79 100 79 -648 l0
-665 -108 6 c-296 16 -563 -130 -692 -378 -62 -119 -71 -178 -73 -449 -2 -188
-5 -240 -17 -262 -9 -15 -53 -66 -99 -113 -63 -66 -91 -103 -115 -158 -61
-133 -71 -185 -70 -357 0 -146 2 -161 33 -260 51 -165 147 -317 286 -455 224
-223 488 -335 759 -323 l96 4 0 -237 0 -237 -192 0 c-106 1 -206 -3 -222 -9
-16 -5 -39 -21 -49 -36 -19 -24 -19 -29 -6 -64 26 -68 48 -73 325 -73 235 0
242 1 275 23 59 39 63 60 61 273 -2 191 -2 192 20 198 13 3 643 6 1401 6
l1378 0 -3 -157 -3 -158 -1168 -5 -1169 -5 -29 -33 c-16 -18 -29 -43 -29 -55
0 -30 37 -65 81 -77 22 -6 1103 -10 3007 -10 l2974 0 30 30 c27 27 30 36 25
73 -11 83 47 77 -798 77 l-748 0 33 79 c50 117 118 315 201 590 91 302 141
450 207 605 99 236 549 1424 634 1674 34 99 41 113 59 109 11 -3 57 -15 101
-26 128 -34 184 -12 258 98 56 84 71 145 71 291 -1 139 -13 184 -83 304 -50
86 -190 222 -287 279 -110 65 -187 88 -316 94 -144 7 -233 -16 -404 -103 -130
-67 -130 -67 -220 -69 -66 -1 -99 -6 -121 -19 -64 -38 -106 -139 -107 -256 -1
-86 13 -138 56 -197 36 -50 75 -70 257 -130 74 -25 147 -51 162 -59 l27 -14
-50 -142 c-28 -79 -61 -172 -74 -208 -13 -36 -44 -119 -70 -185 -25 -66 -61
-158 -79 -205 -18 -47 -101 -254 -183 -460 -262 -656 -250 -614 -212 -770 11
-43 9 -52 -26 -140 -60 -151 -146 -344 -160 -358 -10 -11 -12 36 -11 235 1
136 -1 987 -3 1891 -1 904 -1 1645 1 1647 2 2 46 -8 98 -22 80 -21 110 -24
191 -20 115 6 187 35 244 99 61 66 80 120 80 218 -1 105 -30 176 -102 246 -48
47 -279 204 -388 264 -33 18 -75 47 -93 64 l-32 30 0 347 c1 190 4 358 8 373
6 22 18 31 58 45 62 21 109 58 149 119 28 43 30 53 30 137 0 103 -22 165 -78
223 -67 70 -35 67 -629 70 -359 2 -551 -1 -577 -8 -62 -16 -120 -67 -155 -135
-27 -53 -30 -69 -29 -140 1 -90 16 -136 63 -195 31 -39 136 -100 172 -100 16
0 18 -9 18 -80 0 -54 -4 -80 -12 -80 -6 0 -32 13 -57 29 -25 15 -118 72 -206
126 -190 116 -220 135 -480 297 -248 155 -345 207 -460 248 -80 28 -105 32
-220 36 -71 2 -150 -1 -175 -6z m320 -202 c105 -32 219 -94 505 -275 305 -192
499 -310 1000 -608 847 -503 1129 -684 1160 -746 21 -40 19 -108 -5 -147 -44
-73 -175 -83 -307 -24 -60 27 -675 390 -1068 632 -60 37 -222 136 -360 220
-137 84 -387 239 -555 344 -354 221 -415 249 -540 250 -82 1 -89 -1 -183 -46
-54 -26 -158 -88 -230 -137 -175 -118 -1132 -727 -1372 -873 -104 -63 -252
-154 -329 -202 -256 -161 -412 -226 -543 -226 -107 0 -140 21 -164 103 -10 34
9 88 44 125 37 40 64 58 1322 843 215 133 509 319 655 413 484 310 569 356
698 376 77 12 192 2 272 -22z m2103 22 c154 0 169 -2 187 -20 13 -13 20 -33
20 -60 0 -43 -31 -115 -52 -122 -7 -2 -233 -4 -503 -3 l-489 0 -23 34 c-32 47
-39 96 -20 137 l16 33 148 4 c81 2 238 2 348 1 110 -2 275 -4 368 -4z m-38
-413 c3 -7 4 -146 3 -310 l-3 -298 -95 59 c-240 149 -408 251 -437 266 -18 9
-37 25 -43 35 -5 11 -10 74 -10 140 l0 121 290 0 c225 0 292 -3 295 -13z
m-2235 -177 c0 -5 24 -10 54 -10 65 0 110 -22 341 -164 88 -54 250 -154 360
-221 110 -67 283 -173 385 -235 178 -108 787 -474 995 -596 l100 -59 3 -149
c2 -135 1 -148 -14 -142 -40 15 -393 224 -679 401 -309 191 -381 235 -655 399
-80 48 -239 148 -355 222 -120 78 -272 166 -355 206 -80 38 -153 74 -163 79
-28 15 -194 -71 -392 -201 -208 -138 -507 -328 -1155 -733 -663 -416 -670
-420 -676 -404 -2 7 -3 73 -2 147 l3 133 115 70 c275 168 608 373 770 476 96
61 195 123 220 137 54 33 675 430 810 519 108 71 144 91 215 116 58 21 75 23
75 9z m131 -538 c44 -19 80 -41 469 -282 249 -154 474 -292 825 -503 138 -83
358 -218 490 -300 132 -83 259 -161 283 -174 l42 -25 1 -1636 c1 -901 2 -1719
3 -1820 l1 -183 -135 3 -135 3 0 755 c0 415 2 814 4 885 4 150 -11 214 -76
324 -44 73 -80 101 -184 139 -74 27 -74 27 -402 30 -281 3 -337 1 -385 -13
-114 -33 -196 -91 -256 -178 -69 -101 -67 -73 -71 -1062 l-5 -890 -1398 -3
-1398 -2 -1 1537 c-1 846 -3 1660 -5 1808 l-3 270 55 37 c30 20 177 112 325
204 149 92 297 185 330 205 33 21 112 70 175 109 241 149 297 183 345 214 28
18 138 88 245 156 107 68 272 174 366 236 301 197 357 215 495 156z m3643
-1552 c164 -56 293 -184 347 -341 18 -54 20 -77 15 -147 -6 -85 -22 -138 -47
-159 -20 -16 -218 36 -464 122 -174 61 -320 108 -481 155 -127 37 -164 69
-164 142 0 78 1 78 115 78 l102 0 74 48 c124 81 163 101 224 117 77 19 201 13
279 -15z m-185 -722 c64 -23 118 -43 120 -45 3 -2 -55 -147 -65 -161 -5 -7
-234 70 -234 79 0 16 52 169 58 169 3 0 57 -19 121 -42z m-6029 -132 l45 -13
3 -1042 c1 -572 -1 -1041 -4 -1041 -4 0 -77 67 -163 149 -163 154 -199 181
-251 181 -63 0 -118 -54 -108 -107 2 -10 53 -63 113 -117 61 -55 172 -157 248
-229 118 -111 136 -132 121 -140 -24 -13 -214 -2 -289 18 -95 24 -216 89 -287
152 -35 32 -79 72 -98 88 -95 82 -198 247 -237 379 -44 147 -42 381 4 470 9
17 63 79 120 137 57 59 111 124 120 145 14 32 18 90 23 319 6 256 9 285 29
337 65 168 214 282 407 312 116 18 150 19 204 2z m5891 -221 c123 -41 119 -24
51 -220 -163 -465 -491 -1295 -511 -1295 -14 0 -185 60 -192 68 -15 15 112
363 291 797 126 306 246 610 256 649 8 32 11 32 105 1z m-2001 -358 c102 -2
197 -9 212 -15 31 -13 73 -55 96 -97 15 -27 16 -132 17 -1172 0 -628 -2 -1143
-5 -1146 -3 -2 -224 -7 -493 -11 l-487 -7 2 1143 3 1143 28 47 c57 97 129 125
313 121 71 -2 212 -4 314 -6z m1453 -1318 c20 -5 37 -15 37 -22 0 -14 -45
-170 -96 -333 -50 -163 -172 -504 -232 -649 l-50 -120 -116 -3 c-134 -3 -128
-10 -96 106 38 138 102 289 261 614 87 179 159 329 159 331 0 3 9 26 20 52 22
52 14 50 113 24z m-703 -816 c0 -5 -12 -66 -26 -138 -14 -71 -28 -141 -30
-154 -4 -20 -9 -22 -36 -17 -17 3 -55 6 -84 6 l-54 0 0 155 0 155 115 0 c63 0
115 -3 115 -7z"/>
<path d="M4380 6509 c-153 -3 -289 -10 -306 -16 -127 -44 -214 -165 -214 -297
0 -112 47 -203 145 -279 l55 -42 0 -695 c0 -382 -4 -700 -8 -706 -4 -6 -26
-21 -48 -32 -49 -25 -98 -84 -119 -142 -18 -51 -19 -148 -3 -203 17 -56 96
-140 158 -166 l51 -22 1024 1 c732 0 1033 4 1057 12 80 27 154 96 173 162 35
116 9 244 -65 329 l-40 45 0 705 0 705 44 15 c120 41 206 152 222 288 16 137
-82 283 -221 329 -32 11 -203 14 -835 14 -437 1 -919 -2 -1070 -5z m1860 -208
c65 -45 75 -143 20 -205 l-28 -31 -1029 -3 c-685 -2 -1040 0 -1064 7 -75 22
-109 102 -74 175 33 69 33 69 373 76 169 4 638 5 1042 2 676 -3 737 -5 760
-21z m-1045 -441 c682 0 864 -3 866 -12 4 -12 -9 -1342 -14 -1488 l-2 -64 64
-25 63 -25 -6 -50 c-4 -34 -13 -58 -30 -75 l-25 -24 -973 -5 c-867 -4 -977 -3
-1010 11 -58 24 -100 111 -66 134 7 4 47 17 88 28 l75 20 7 45 c3 25 7 379 7
787 1 697 2 742 19 746 9 3 30 3 46 1 16 -2 417 -4 891 -4z"/>
<path d="M4437 5653 c-4 -3 -7 -306 -7 -673 l0 -667 23 -21 23 -22 672 0 672
0 17 27 c17 25 18 72 18 693 l0 665 -706 3 c-388 1 -709 -1 -712 -5z m556
-169 l37 -7 -2 -211 -3 -211 -201 -3 -202 -3 -6 88 c-4 67 -2 336 3 351 2 5
338 1 374 -4z m625 -12 l52 -4 0 -204 0 -204 -187 -1 c-225 -2 -256 0 -265 15
-10 14 -10 390 -1 400 7 7 308 6 401 -2z m-593 -807 l0 -210 -197 -3 c-188 -2
-198 -2 -208 18 -7 12 -9 88 -8 207 l3 188 65 5 c36 3 128 5 205 5 l140 0 0
-210z m645 0 l0 -205 -92 -1 c-51 -1 -154 -2 -228 -3 l-135 -1 -3 208 -2 207
230 0 230 0 0 -205z"/>
<path d="M6784 4056 c-44 -19 -74 -62 -74 -105 0 -47 23 -79 74 -102 59 -27
91 -24 115 9 41 58 39 129 -5 182 -29 33 -59 38 -110 16z"/>
<path d="M7344 3841 c-37 -22 -84 -81 -84 -103 0 -26 76 -96 116 -107 29 -8
43 -7 66 5 39 20 72 93 64 138 -13 71 -100 106 -162 67z"/>
<path d="M1993 2665 c-31 -13 -63 -59 -63 -89 0 -29 33 -84 57 -97 34 -18 102
-14 133 9 14 10 31 35 37 56 11 31 10 42 -4 71 -27 57 -95 79 -160 50z"/>
<path d="M2535 2663 c-119 -7 -155 -27 -155 -87 0 -52 26 -75 95 -86 95 -16
261 -13 295 5 62 32 46 148 -22 159 -46 8 -153 12 -213 9z"/>
</g>
</svg>
