<?xml version="1.0" encoding="UTF-8"?>
<svg xmlns="http://www.w3.org/2000/svg" xmlns:xlink="http://www.w3.org/1999/xlink" width="36px" height="px" viewBox="0 0 36 36" version="1.1">
<g id="surface1">
<path style=" stroke:none;fill-rule:nonzero;fill:rgb(0%,0%,0%);fill-opacity:1;" d="M 23.964844 6.890625 C 22.910156 7.257812 20.433594 8.613281 19.484375 9.34375 C 19.25 9.515625 20.023438 9.195312 21.1875 8.613281 C 24.609375 6.933594 27.128906 6.738281 28.183594 8.117188 C 28.808594 8.871094 29.132812 10.226562 28.960938 11.304688 C 28.785156 12.53125 27.601562 14.921875 26.484375 16.320312 L 25.578125 17.484375 L 24.996094 16.921875 C 24.675781 16.621094 24.308594 16.363281 24.199219 16.363281 C 23.964844 16.363281 22.738281 21.746094 22.929688 21.941406 C 23.039062 22.027344 28.097656 20.519531 28.398438 20.304688 C 28.464844 20.261719 28.183594 19.894531 27.796875 19.507812 L 27.085938 18.773438 L 27.730469 17.828125 C 29.453125 15.308594 30.507812 12.164062 30.25 10.335938 C 29.777344 7.039062 27.324219 5.683594 23.964844 6.890625 Z M 23.964844 6.890625 "/>
<path style=" stroke:none;fill-rule:nonzero;fill:rgb(0%,0%,0%);fill-opacity:1;" d="M 16.558594 15.933594 C 15.996094 17.828125 15.632812 19.421875 15.71875 19.484375 C 16.214844 19.785156 16.558594 19.078125 17.460938 15.933594 C 18.429688 12.59375 18.453125 12.488281 18 12.488281 C 17.589844 12.488281 17.441406 12.875 16.558594 15.933594 Z M 16.558594 15.933594 "/>
<path style=" stroke:none;fill-rule:nonzero;fill:rgb(0%,0%,0%);fill-opacity:1;" d="M 5.449219 12.960938 C 4.929688 13.199219 4.84375 13.476562 5.125 13.929688 C 5.230469 14.101562 5.40625 14.125 5.597656 13.996094 C 6.179688 13.628906 7.277344 13.738281 7.535156 14.1875 C 7.945312 14.964844 7.75 15.332031 6.222656 16.921875 C 4.175781 19.011719 4.261719 19.207031 7.039062 19.121094 L 9.152344 19.054688 L 9.214844 18.453125 C 9.28125 17.871094 9.28125 17.871094 8.03125 17.871094 L 6.78125 17.871094 L 7.472656 17.332031 C 9.042969 16.082031 9.515625 14.230469 8.503906 13.242188 C 8.09375 12.8125 7.773438 12.703125 6.953125 12.726562 C 6.394531 12.726562 5.707031 12.832031 5.449219 12.960938 Z M 5.449219 12.960938 "/>
<path style=" stroke:none;fill-rule:nonzero;fill:rgb(0%,0%,0%);fill-opacity:1;" d="M 11.324219 14.640625 C 10.65625 15.695312 10.121094 16.75 10.121094 16.988281 C 10.121094 17.460938 10.679688 17.65625 12.015625 17.65625 C 12.898438 17.65625 12.917969 17.675781 12.917969 18.410156 C 12.917969 19.097656 12.960938 19.164062 13.542969 19.164062 C 14.125 19.164062 14.1875 19.097656 14.253906 18.34375 C 14.296875 17.804688 14.425781 17.546875 14.640625 17.546875 C 14.8125 17.546875 14.984375 17.332031 15.027344 17.050781 C 15.09375 16.6875 14.984375 16.578125 14.664062 16.578125 C 14.230469 16.578125 14.210938 16.449219 14.210938 14.640625 L 14.210938 12.703125 L 13.371094 12.703125 C 12.53125 12.703125 12.488281 12.726562 11.324219 14.640625 Z M 12.917969 15.179688 L 12.917969 16.578125 L 12.164062 16.578125 C 11.757812 16.578125 11.410156 16.535156 11.410156 16.472656 C 11.410156 16.40625 11.648438 15.996094 11.929688 15.546875 C 12.1875 15.113281 12.488281 14.535156 12.574219 14.253906 C 12.832031 13.476562 12.917969 13.695312 12.917969 15.179688 Z M 12.917969 15.179688 "/>
<path style=" stroke:none;fill-rule:nonzero;fill:rgb(0%,0%,0%);fill-opacity:1;" d="M 19.164062 13.242188 C 19.164062 13.757812 19.207031 13.78125 20.5625 13.78125 C 21.335938 13.78125 21.960938 13.867188 21.960938 13.972656 C 21.960938 14.101562 21.421875 15.199219 20.777344 16.429688 C 20.132812 17.65625 19.59375 18.773438 19.59375 18.90625 C 19.59375 19.183594 20.433594 19.25 20.800781 18.992188 C 21.164062 18.730469 23.46875 13.78125 23.46875 13.21875 C 23.46875 12.703125 23.449219 12.703125 21.316406 12.703125 L 19.164062 12.703125 Z M 19.164062 13.242188 "/>
<path style=" stroke:none;fill-rule:nonzero;fill:rgb(0%,0%,0%);fill-opacity:1;" d="M 9.171875 23.101562 C 8.589844 26.441406 10.011719 28.097656 13.457031 28.078125 C 14.835938 28.054688 15.503906 27.925781 16.816406 27.410156 C 18.472656 26.761719 22.175781 24.589844 22.175781 24.265625 C 22.175781 24.15625 21.875 23.707031 21.507812 23.253906 L 20.84375 22.414062 L 18.949219 23.964844 C 16.773438 25.75 15.199219 26.589844 13.476562 26.933594 C 12.445312 27.152344 12.121094 27.128906 11.304688 26.804688 C 9.992188 26.3125 9.601562 25.664062 9.472656 23.707031 L 9.34375 22.070312 Z M 9.171875 23.101562 "/>
</g>
</svg>
