<?xml version="1.0" encoding="UTF-8"?>
<svg xmlns="http://www.w3.org/2000/svg" xmlns:xlink="http://www.w3.org/1999/xlink" width="36px" height="px" viewBox="0 0 36 36" version="1.1">
<g id="surface1">
<path style=" stroke:none;fill-rule:nonzero;fill:rgb(0%,0%,0%);fill-opacity:1;" d="M 19.292969 1.90625 C 19.1875 1.933594 18.660156 2.167969 18.125 2.441406 C 16.863281 3.070312 16.152344 3.199219 15.085938 2.964844 C 14.675781 2.867188 14.042969 2.78125 13.683594 2.75 C 13.109375 2.703125 12.984375 2.730469 12.539062 2.972656 C 11.808594 3.371094 11.546875 3.730469 11.195312 4.792969 C 10.699219 6.335938 9.855469 7.425781 8.679688 8.046875 C 7.960938 8.425781 7.660156 8.765625 7.433594 9.4375 C 7.152344 10.261719 7.261719 11.003906 7.765625 11.839844 C 8.523438 13.089844 8.609375 13.800781 8.210938 15.394531 C 7.921875 16.550781 7.988281 16.988281 8.554688 17.863281 C 9.019531 18.601562 9.339844 18.816406 10.195312 19 C 11.175781 19.207031 11.496094 19.359375 12.121094 19.945312 C 12.5 20.304688 12.761719 20.664062 12.984375 21.140625 C 13.160156 21.507812 13.402344 21.917969 13.527344 22.023438 C 14.113281 22.558594 15.386719 22.976562 16.269531 22.917969 C 16.8125 22.890625 16.929688 22.839844 17.464844 22.414062 C 17.796875 22.160156 18.261719 21.886719 18.523438 21.808594 C 19.195312 21.617188 20.265625 21.636719 20.945312 21.867188 C 21.683594 22.121094 22.199219 22.109375 22.8125 21.828125 C 23.839844 21.34375 24.414062 20.574219 24.628906 19.398438 C 24.8125 18.398438 25.492188 17.574219 26.628906 16.941406 C 27.496094 16.464844 27.613281 16.359375 27.960938 15.597656 C 28.167969 15.140625 28.226562 14.871094 28.234375 14.324219 C 28.234375 13.703125 28.207031 13.585938 27.902344 13.109375 C 27.046875 11.769531 26.894531 11.003906 27.144531 9.417969 C 27.234375 8.863281 27.3125 8.25 27.3125 8.058594 C 27.3125 7.289062 26.796875 6.367188 26.210938 6.066406 C 26.046875 5.976562 25.511719 5.773438 25.027344 5.617188 C 23.597656 5.152344 22.996094 4.675781 22.226562 3.351562 C 21.800781 2.613281 21.441406 2.285156 20.90625 2.089844 C 20.441406 1.925781 19.605469 1.828125 19.292969 1.90625 Z M 19.71875 4.871094 C 22.285156 5.519531 24.355469 7.542969 25.191406 10.207031 C 25.386719 10.835938 25.414062 11.128906 25.414062 12.390625 C 25.414062 13.539062 25.375 13.976562 25.230469 14.433594 C 24.773438 15.910156 24.074219 17.046875 22.996094 18.046875 C 22.179688 18.816406 21.273438 19.351562 20.117188 19.75 C 19.253906 20.042969 19.117188 20.058594 17.835938 20.070312 C 16.300781 20.070312 15.667969 19.945312 14.511719 19.390625 C 12.382812 18.390625 10.847656 16.570312 10.253906 14.335938 C 9.855469 12.847656 9.980469 10.914062 10.585938 9.425781 C 11.402344 7.425781 13.21875 5.726562 15.308594 5.003906 C 16.609375 4.558594 18.28125 4.507812 19.71875 4.871094 Z M 19.71875 4.871094 "/>
<path style=" stroke:none;fill-rule:nonzero;fill:rgb(0%,0%,0%);fill-opacity:1;" d="M 16.375 5.78125 C 16.007812 5.871094 15.277344 6.132812 14.773438 6.386719 C 13.035156 7.222656 11.652344 8.953125 11.226562 10.828125 C 11.050781 11.585938 11.023438 13.0625 11.167969 13.734375 C 11.875 16.863281 14.570312 19.050781 17.738281 19.050781 C 22.753906 19.050781 26.007812 13.753906 23.707031 9.332031 C 22.8125 7.609375 21.285156 6.367188 19.476562 5.878906 C 18.640625 5.65625 17.191406 5.609375 16.375 5.78125 Z M 22.015625 9.515625 L 22.675781 10.128906 L 19.738281 13.0625 L 16.8125 15.988281 L 15.257812 14.433594 C 14.402344 13.578125 13.703125 12.839844 13.703125 12.78125 C 13.703125 12.722656 13.984375 12.390625 14.335938 12.050781 L 14.96875 11.421875 L 16.8125 13.265625 L 19.03125 11.050781 C 20.246094 9.835938 21.265625 8.855469 21.304688 8.863281 C 21.332031 8.882812 21.65625 9.175781 22.015625 9.515625 Z M 22.015625 9.515625 "/>
<path style=" stroke:none;fill-rule:nonzero;fill:rgb(0%,0%,0%);fill-opacity:1;" d="M 25.757812 23.191406 C 24.230469 24.257812 22.074219 25.152344 20.410156 25.386719 C 19.984375 25.453125 19.632812 25.550781 19.632812 25.609375 C 19.632812 25.738281 23.023438 33.550781 23.132812 33.667969 C 23.179688 33.714844 23.269531 33.570312 23.324219 33.335938 C 23.617188 32.269531 24.765625 28.46875 24.8125 28.410156 C 24.851562 28.378906 25.988281 28.886719 27.351562 29.535156 C 28.710938 30.179688 29.847656 30.710938 29.867188 30.710938 C 29.894531 30.710938 29.148438 28.925781 28.207031 26.726562 C 27.253906 24.542969 26.464844 22.742188 26.4375 22.742188 C 26.40625 22.742188 26.105469 22.945312 25.757812 23.191406 Z M 25.757812 23.191406 "/>
<path style=" stroke:none;fill-rule:nonzero;fill:rgb(0%,0%,0%);fill-opacity:1;" d="M 9.730469 23.453125 C 9.632812 23.675781 9.136719 24.773438 8.621094 25.902344 C 6.949219 29.59375 6.492188 30.636719 6.53125 30.675781 C 6.550781 30.691406 7.679688 30.179688 9.039062 29.535156 C 10.390625 28.894531 11.527344 28.410156 11.566406 28.449219 C 11.605469 28.488281 11.972656 29.691406 12.402344 31.121094 C 12.820312 32.558594 13.1875 33.726562 13.21875 33.726562 C 13.257812 33.726562 16.484375 26.359375 16.667969 25.84375 C 16.71875 25.71875 16.621094 25.667969 16.113281 25.621094 C 14.324219 25.414062 12.179688 24.609375 10.679688 23.578125 L 9.902344 23.035156 Z M 9.730469 23.453125 "/>
</g>
</svg>
