<?xml version="1.0" encoding="UTF-8"?>
<svg xmlns="http://www.w3.org/2000/svg" xmlns:xlink="http://www.w3.org/1999/xlink" width="36px" height="px" viewBox="0 0 36 36" version="1.1">
<g id="surface1">
<path style=" stroke:none;fill-rule:nonzero;fill:rgb(0%,0%,0%);fill-opacity:1;" d="M 10.910156 4.699219 C 8.171875 5.28125 5.800781 7.148438 4.640625 9.648438 C 3.140625 12.890625 3.761719 16.640625 6.21875 19.25 C 7.96875 21.101562 10.078125 22.03125 12.550781 22.019531 C 14.378906 22.019531 16.019531 21.53125 17.390625 20.601562 C 17.71875 20.378906 18.019531 20.199219 18.050781 20.199219 C 18.148438 20.199219 19.789062 21.808594 20.019531 22.128906 L 20.21875 22.410156 L 19.761719 22.898438 C 19.308594 23.378906 19.300781 23.410156 19.441406 23.671875 C 19.519531 23.828125 21.378906 25.738281 23.570312 27.921875 C 27.039062 31.378906 27.601562 31.898438 27.859375 31.898438 C 28.109375 31.898438 28.390625 31.660156 29.679688 30.371094 C 30.800781 29.238281 31.199219 28.769531 31.199219 28.589844 C 31.199219 28.410156 30.25 27.398438 27.070312 24.21875 C 24.351562 21.5 22.878906 20.101562 22.75 20.101562 C 22.628906 20.101562 22.320312 20.320312 22.050781 20.601562 C 21.78125 20.871094 21.511719 21.101562 21.449219 21.101562 C 21.390625 21.101562 20.878906 20.628906 20.308594 20.058594 L 19.261719 19.011719 L 19.671875 18.429688 C 20.230469 17.621094 20.738281 16.589844 21.019531 15.699219 C 21.21875 15.050781 21.25 14.738281 21.25 13.351562 C 21.25 11.449219 21.140625 10.921875 20.398438 9.449219 C 19.308594 7.25 17.589844 5.78125 15.148438 4.941406 C 14.441406 4.699219 14.179688 4.660156 12.851562 4.640625 C 12.03125 4.621094 11.148438 4.648438 10.910156 4.699219 Z M 13.558594 6.308594 C 15.96875 6.640625 18.011719 8.148438 19 10.339844 C 19.46875 11.371094 19.628906 12.140625 19.628906 13.300781 C 19.609375 15.359375 19.019531 16.789062 17.558594 18.261719 C 16.558594 19.25 15.808594 19.710938 14.5 20.121094 C 13.53125 20.421875 11.800781 20.441406 10.800781 20.160156 C 7.660156 19.289062 5.5 16.460938 5.5 13.199219 C 5.5 11.839844 6.171875 10.019531 7.089844 8.859375 C 7.890625 7.851562 9.03125 7.050781 10.21875 6.660156 C 11.539062 6.21875 12.320312 6.128906 13.558594 6.308594 Z M 13.558594 6.308594 "/>
</g>
</svg>
