<?xml version="1.0" encoding="UTF-8"?>
<svg xmlns="http://www.w3.org/2000/svg" xmlns:xlink="http://www.w3.org/1999/xlink" width="35px" height="px" viewBox="0 0 35 34" version="1.1">
<g id="surface1">
<path style=" stroke:none;fill-rule:nonzero;fill:rgb(0%,0%,0%);fill-opacity:1;" d="M 14.09375 0.246094 C 10.578125 1.066406 8.558594 3.492188 8.863281 6.460938 L 8.957031 7.292969 L 9.609375 7.1875 C 14.589844 6.398438 21.09375 6.273438 25.152344 6.894531 C 25.660156 6.984375 25.757812 6.9375 25.867188 6.628906 C 26.105469 5.902344 25.980469 4.433594 25.613281 3.679688 C 24.882812 2.164062 22.65625 0.726562 20.285156 0.230469 C 18.851562 -0.0625 15.367188 -0.046875 14.09375 0.246094 Z M 20.011719 4.433594 L 19.964844 5.175781 L 15.035156 5.175781 L 14.988281 4.433594 L 14.9375 3.710938 L 20.0625 3.710938 Z M 20.011719 4.433594 "/>
<path style=" stroke:none;fill-rule:nonzero;fill:rgb(0%,0%,0%);fill-opacity:1;" d="M 13.285156 7.882812 C 11.535156 8.066406 9.609375 8.359375 9.417969 8.484375 C 9.324219 8.546875 9.289062 8.777344 9.371094 9.117188 C 9.433594 9.410156 9.417969 9.84375 9.339844 10.078125 C 9.035156 10.988281 9.832031 13.042969 10.5625 13.230469 C 10.851562 13.289062 11.007812 13.554688 11.28125 14.417969 C 11.757812 15.839844 12.265625 16.828125 12.789062 17.292969 C 13.285156 17.742188 13.332031 18.421875 12.902344 18.839844 C 12.472656 19.257812 11.039062 19.875 9.832031 20.167969 L 8.78125 20.429688 L 9.65625 22.855469 C 10.132812 24.1875 10.5625 25.390625 10.613281 25.53125 C 10.691406 25.792969 11.167969 25.808594 17.816406 25.808594 L 24.929688 25.808594 L 25.675781 23.257812 C 26.074219 21.851562 26.410156 20.648438 26.410156 20.570312 C 26.410156 20.492188 26.011719 20.382812 25.519531 20.324219 C 24.101562 20.152344 23.226562 19.84375 22.65625 19.300781 C 22.003906 18.699219 21.921875 17.988281 22.449219 17.527344 C 22.972656 17.0625 23.480469 16.089844 23.863281 14.851562 C 24.132812 13.972656 24.339844 13.601562 24.816406 13.152344 C 25.867188 12.179688 26.265625 10.183594 25.535156 9.519531 C 25.214844 9.242188 25.167969 9.070312 25.230469 8.625 L 25.328125 8.082031 L 23.511719 7.914062 C 21.539062 7.710938 15.066406 7.695312 13.285156 7.882812 Z M 25.058594 10.664062 C 25.039062 11.699219 24.59375 12.671875 23.992188 12.949219 C 23.6875 13.089844 23.496094 13.367188 23.289062 14 C 22.957031 15.050781 22.035156 16.460938 21.300781 17.0625 C 19.710938 18.375 17.355469 18.714844 15.542969 17.894531 C 13.855469 17.125 12.328125 15.363281 11.773438 13.492188 C 11.628906 13.027344 11.46875 12.828125 11.230469 12.796875 C 10.5625 12.703125 9.785156 10.863281 10.085938 10.105469 C 10.164062 9.90625 10.277344 9.9375 10.800781 10.339844 C 11.582031 10.941406 12.808594 11.5 14.160156 11.855469 C 15.574219 12.222656 19.21875 12.222656 20.683594 11.855469 C 22.113281 11.484375 23.640625 10.726562 24.054688 10.183594 C 24.292969 9.890625 24.53125 9.738281 24.738281 9.765625 C 25.007812 9.8125 25.058594 9.921875 25.058594 10.664062 Z M 14.605469 18.46875 C 15.574219 19.085938 16.53125 19.347656 17.851562 19.363281 C 18.933594 19.378906 19.1875 19.316406 20.15625 18.839844 C 20.746094 18.546875 21.285156 18.296875 21.335938 18.265625 C 21.507812 18.191406 21.191406 19.75 20.90625 20.324219 C 20.601562 20.941406 19.886719 21.589844 19.136719 21.898438 C 18.46875 22.160156 16.992188 22.160156 16.324219 21.882812 C 15.558594 21.574219 14.699219 20.785156 14.351562 20.042969 C 14.046875 19.410156 13.761719 18.082031 13.921875 18.082031 C 13.96875 18.082031 14.269531 18.25 14.605469 18.46875 Z M 14.605469 18.46875 "/>
<path style=" stroke:none;fill-rule:nonzero;fill:rgb(0%,0%,0%);fill-opacity:1;" d="M 5.234375 21.15625 C 3.851562 21.683594 2.832031 22.546875 1.941406 23.96875 C 0.890625 25.65625 0 29.425781 0 32.238281 L 0 34 L 5.410156 34 L 5.410156 30.214844 C 5.410156 26.628906 5.425781 26.410156 5.726562 26.117188 C 5.964844 25.886719 6.253906 25.808594 6.9375 25.808594 L 7.84375 25.808594 L 7.730469 25.003906 C 7.667969 24.558594 7.367188 23.445312 7.0625 22.53125 C 6.441406 20.679688 6.460938 20.695312 5.234375 21.15625 Z M 5.234375 21.15625 "/>
<path style=" stroke:none;fill-rule:nonzero;fill:rgb(0%,0%,0%);fill-opacity:1;" d="M 28.429688 22.515625 C 28.207031 23.445312 27.96875 24.558594 27.921875 24.988281 L 27.808594 25.808594 L 28.507812 25.808594 C 29.050781 25.808594 29.304688 25.902344 29.558594 26.164062 C 29.894531 26.519531 29.910156 26.644531 29.910156 30.261719 L 29.910156 34 L 35 34 L 35 32.238281 C 35 30.972656 34.886719 29.921875 34.601562 28.542969 C 33.949219 25.328125 33.074219 23.445312 31.660156 22.222656 C 30.976562 21.621094 29.511719 20.863281 29.050781 20.863281 C 28.890625 20.863281 28.699219 21.40625 28.429688 22.515625 Z M 28.429688 22.515625 "/>
<path style=" stroke:none;fill-rule:nonzero;fill:rgb(0%,0%,0%);fill-opacity:1;" d="M 7.429688 27.789062 C 7.078125 28.15625 7.09375 28.484375 7.445312 28.792969 C 7.8125 29.117188 8.175781 29.132812 8.496094 28.808594 C 8.972656 28.34375 8.636719 27.507812 7.96875 27.507812 C 7.8125 27.507812 7.574219 27.632812 7.429688 27.789062 Z M 7.429688 27.789062 "/>
<path style=" stroke:none;fill-rule:nonzero;fill:rgb(0%,0%,0%);fill-opacity:1;" d="M 26.855469 27.679688 C 26.457031 27.894531 26.472656 28.683594 26.871094 28.898438 C 27.363281 29.148438 27.648438 29.085938 27.9375 28.667969 C 28.175781 28.3125 28.175781 28.25 27.9375 27.894531 C 27.664062 27.492188 27.300781 27.417969 26.855469 27.679688 Z M 26.855469 27.679688 "/>
<path style=" stroke:none;fill-rule:nonzero;fill:rgb(0%,0%,0%);fill-opacity:1;" d="M 22.273438 28.605469 C 22.066406 28.699219 21.492188 29.054688 21.015625 29.410156 L 20.15625 30.058594 L 17.46875 30.105469 L 14.761719 30.152344 L 13.714844 29.535156 C 12.328125 28.730469 11.46875 28.652344 10.5 29.222656 L 9.960938 29.550781 L 10.722656 29.84375 C 11.613281 30.167969 11.914062 30.492188 11.933594 31.171875 C 11.933594 31.914062 11.28125 32.347656 10.308594 32.253906 C 9.878906 32.222656 9.546875 32.222656 9.546875 32.253906 C 9.546875 32.5625 10.355469 33.320312 10.945312 33.566406 C 11.882812 33.96875 12.394531 33.859375 13.792969 32.949219 L 14.921875 32.191406 L 17.371094 32.097656 C 18.710938 32.039062 19.980469 32.039062 20.203125 32.097656 C 20.425781 32.144531 20.855469 32.394531 21.175781 32.625 C 22.257812 33.445312 23.355469 33.613281 24.339844 33.105469 C 25.058594 32.71875 25.136719 32.453125 24.53125 32.453125 C 24.246094 32.453125 23.847656 32.285156 23.5625 32.050781 C 22.398438 31.109375 23.464844 29.566406 24.976562 29.980469 C 25.566406 30.152344 25.582031 29.996094 25.023438 29.347656 C 24.324219 28.542969 23.226562 28.234375 22.273438 28.605469 Z M 22.273438 28.605469 "/>
</g>
</svg>
