<?xml version="1.0" standalone="no"?>
<!DOCTYPE svg PUBLIC "-//W3C//DTD SVG 20010904//EN"
 "http://www.w3.org/TR/2001/REC-SVG-20010904/DTD/svg10.dtd">
<svg version="1.0" xmlns="http://www.w3.org/2000/svg"
 width="155.000000pt" height="138.000000pt" viewBox="0 0 155.000000 138.000000"
 preserveAspectRatio="xMidYMid meet">

<g transform="translate(0.000000,138.000000) scale(0.100000,-0.100000)"
fill="#000000" stroke="none">
<path d="M330 1205 c-113 -18 -214 -34 -225 -36 -14 -3 0 -12 43 -28 35 -13
66 -30 69 -37 2 -7 -14 -205 -37 -441 l-42 -428 -42 -36 -41 -37 45 -6 c50 -6
470 -36 510 -36 23 0 22 2 -18 38 l-43 37 3 155 3 155 55 11 c30 6 75 14 99
18 l44 7 -5 -136 -5 -136 -44 -46 -44 -45 185 6 c102 3 258 9 347 13 l161 6
-54 44 c-45 37 -54 50 -54 76 0 18 -11 183 -25 367 -14 184 -25 351 -25 371 0
35 4 39 70 79 39 23 70 46 70 50 0 4 -144 11 -320 16 -176 5 -320 7 -320 5 0
-2 16 -21 35 -42 19 -22 35 -49 35 -62 0 -41 -42 -352 -49 -359 -6 -6 -166 54
-179 67 -2 2 -11 77 -21 167 l-18 163 38 42 c22 24 39 45 39 48 0 8 -16 5
-240 -30z"/>
<path d="M541 1004 c0 -11 3 -14 6 -6 3 7 2 16 -1 19 -3 4 -6 -2 -5 -13z"/>
<path d="M1232 935 c0 -16 2 -22 5 -12 2 9 2 23 0 30 -3 6 -5 -1 -5 -18z"/>
<path d="M551 904 c0 -11 3 -14 6 -6 3 7 2 16 -1 19 -3 4 -6 -2 -5 -13z"/>
<path d="M1242 800 c0 -14 2 -19 5 -12 2 6 2 18 0 25 -3 6 -5 1 -5 -13z"/>
<path d="M1252 660 c0 -14 2 -19 5 -12 2 6 2 18 0 25 -3 6 -5 1 -5 -13z"/>
<path d="M1262 520 c0 -14 2 -19 5 -12 2 6 2 18 0 25 -3 6 -5 1 -5 -13z"/>
<path d="M594 315 c0 -72 1 -99 3 -62 2 37 2 96 0 130 -2 34 -3 4 -3 -68z"/>
<path d="M1272 385 c0 -16 2 -22 5 -12 2 9 2 23 0 30 -3 6 -5 -1 -5 -18z"/>
</g>
</svg>
