<?xml version="1.0" standalone="no"?>
<!DOCTYPE svg PUBLIC "-//W3C//DTD SVG 20010904//EN"
 "http://www.w3.org/TR/2001/REC-SVG-20010904/DTD/svg10.dtd">
<svg version="1.0" xmlns="http://www.w3.org/2000/svg"
 width="493.000000pt" height="462.000000pt" viewBox="0 0 493.000000 462.000000"
 preserveAspectRatio="xMidYMid meet">

<g transform="translate(0.000000,462.000000) scale(0.100000,-0.100000)"
fill="#000000" stroke="none">
<path d="M2135 4544 c-231 -31 -456 -99 -670 -203 -451 -220 -807 -576 -1025
-1025 -153 -314 -220 -610 -220 -966 0 -354 65 -641 216 -958 328 -689 999
-1163 1757 -1243 175 -19 484 -7 647 25 665 127 1226 540 1544 1135 129 241
211 502 246 781 13 108 13 398 0 515 -62 541 -334 1058 -745 1412 -336 290
-738 472 -1168 528 -144 18 -442 18 -582 -1z m610 -79 c701 -106 1305 -553
1611 -1190 99 -206 165 -424 196 -640 16 -117 16 -454 -1 -574 -52 -371 -216
-752 -449 -1045 -337 -423 -844 -711 -1383 -787 -135 -19 -468 -17 -599 4
-696 109 -1285 535 -1597 1151 -418 828 -259 1820 397 2476 371 370 804 568
1365 624 77 8 361 -4 460 -19z"/>
<path d="M2265 4369 c-454 -35 -894 -231 -1229 -549 -509 -483 -730 -1185
-591 -1878 65 -319 218 -638 427 -887 285 -340 654 -571 1078 -675 177 -43
286 -55 495 -54 319 1 581 61 869 199 530 254 935 750 1080 1323 48 189 59
284 59 502 0 218 -11 313 -59 502 -189 746 -803 1331 -1558 1483 -120 24 -336
46 -425 44 -25 -1 -91 -5 -146 -10z m301 -179 c859 -70 1536 -687 1685 -1537
31 -176 31 -435 0 -607 -57 -316 -177 -590 -367 -832 l-69 -89 -5 490 -5 490
-260 178 c-143 97 -272 184 -288 192 -27 15 -30 14 -275 -138 -136 -84 -275
-171 -309 -193 l-63 -39 0 -797 0 -796 -87 -7 c-83 -7 -246 -1 -264 11 -5 3
-9 418 -9 954 l0 949 -187 127 c-104 70 -230 156 -280 191 -51 35 -97 63 -103
63 -10 0 -586 -355 -612 -378 -17 -14 -18 -61 -20 -656 l-3 -640 -51 64 c-435
549 -530 1273 -249 1912 137 312 378 594 675 792 239 159 563 271 855 295 146
12 150 12 291 1z m-988 -3000 l-3 -480 -83 50 c-104 62 -222 149 -290 213
l-52 50 0 671 1 671 212 131 212 131 3 -479 c1 -263 1 -694 0 -958z m1562 291
c0 -656 -3 -831 -13 -839 -29 -24 -282 -98 -374 -109 l-53 -6 0 761 0 760 208
130 c114 72 213 131 220 131 9 1 12 -171 12 -828z"/>
<path d="M2320 3587 l-405 -252 -3 -296 -2 -296 62 -41 63 -42 5 302 5 302
279 173 c153 95 280 173 282 173 2 0 4 -317 4 -705 0 -388 2 -705 5 -705 5 0
180 107 478 294 l139 86 123 -80 c68 -44 126 -80 129 -80 3 0 6 206 6 458 l0
458 -370 249 c-203 138 -375 251 -382 252 -7 1 -195 -111 -418 -250z"/>
</g>
</svg>
