<?xml version="1.0" standalone="no"?>
<!DOCTYPE svg PUBLIC "-//W3C//DTD SVG 20010904//EN"
 "http://www.w3.org/TR/2001/REC-SVG-20010904/DTD/svg10.dtd">
<svg version="1.0" xmlns="http://www.w3.org/2000/svg"
 width="407.000000pt" height="348.000000pt" viewBox="0 0 407.000000 348.000000"
 preserveAspectRatio="xMidYMid meet">

<g transform="translate(0.000000,348.000000) scale(0.100000,-0.100000)"
fill="#000000" stroke="none">
<path d="M2220 3144 c-23 -49 -59 -125 -80 -169 -21 -44 -46 -99 -56 -122 -10
-24 -21 -43 -26 -43 -4 0 -8 -9 -8 -19 0 -21 -30 -84 -42 -89 -5 -2 -8 -10 -8
-19 0 -8 -6 -27 -14 -41 -7 -15 -26 -54 -41 -87 -51 -113 -60 -130 -67 -133
-5 -2 -8 -9 -8 -15 0 -7 -11 -34 -24 -62 -13 -27 -43 -90 -66 -140 -23 -49
-46 -97 -51 -105 -5 -8 -12 -22 -15 -30 -9 -22 -48 -108 -78 -170 -14 -30 -26
-63 -26 -71 0 -9 -7 -22 -15 -29 -8 -7 -15 -23 -15 -36 0 -19 -5 -24 -24 -24
-20 0 -30 11 -50 53 -14 28 -40 77 -57 107 -17 30 -38 69 -46 85 -9 17 -20 37
-24 45 -5 8 -26 49 -47 90 -21 41 -52 100 -70 131 -17 30 -48 89 -70 131 -22
41 -44 83 -50 94 -6 10 -13 26 -16 34 -4 8 -20 38 -36 65 -17 28 -33 57 -36
65 -10 28 -82 161 -95 174 -5 6 -9 16 -9 23 0 7 -8 22 -17 33 -16 19 -29 20
-215 20 -108 0 -199 -4 -202 -8 -5 -8 48 -119 84 -177 10 -16 19 -38 19 -47 1
-10 5 -18 10 -18 5 0 14 -12 20 -27 5 -16 28 -59 50 -98 22 -38 57 -101 76
-140 20 -38 40 -78 45 -87 22 -39 30 -56 62 -118 18 -36 35 -67 38 -70 3 -3
20 -33 38 -68 17 -34 37 -72 44 -85 6 -12 15 -29 19 -37 5 -8 18 -33 29 -55
11 -22 24 -47 29 -55 4 -8 12 -24 18 -35 22 -44 76 -140 82 -145 3 -3 40 -71
81 -153 54 -107 79 -147 92 -147 10 0 18 5 18 10 0 6 8 10 18 10 9 0 30 7 46
15 15 8 41 15 57 15 16 0 29 4 29 10 0 5 18 13 40 16 22 4 40 10 40 15 0 5 9
9 19 9 11 0 35 10 55 23 33 20 35 26 36 74 0 43 -4 54 -20 63 -12 6 -29 8 -40
5 -10 -3 -21 -1 -25 5 -14 23 -25 -5 -25 -66 0 -62 1 -64 25 -64 14 0 25 -4
25 -10 0 -5 -8 -10 -18 -10 -10 0 -23 -5 -28 -10 -17 -17 -143 -19 -156 -3 -6
7 -17 13 -25 13 -11 0 -13 4 -5 13 5 6 12 21 15 32 4 18 5 18 6 -2 1 -18 7
-23 30 -23 17 0 32 3 34 8 2 4 1 43 -3 87 -4 44 -3 84 2 90 5 5 19 -4 36 -24
25 -30 29 -32 41 -17 18 22 119 23 127 1 4 -8 14 -15 24 -15 10 0 23 7 30 15
8 9 29 15 55 15 35 0 48 5 64 26 l21 27 30 -31 c17 -18 30 -38 30 -46 0 -44
35 -62 60 -31 7 8 19 15 26 15 8 0 22 4 32 9 9 4 35 16 57 26 22 9 52 24 67
31 14 8 36 14 47 14 12 0 21 5 21 10 0 6 11 10 24 10 13 0 26 7 30 15 3 8 17
15 31 15 14 0 25 5 25 10 0 6 8 10 19 10 10 0 24 7 31 15 7 8 21 15 31 15 11
0 19 4 19 8 0 9 70 42 88 42 7 0 12 5 12 10 0 16 19 12 39 -7 23 -23 81 -117
81 -131 0 -5 4 -12 9 -14 7 -3 54 -81 88 -150 8 -15 18 -30 24 -33 5 -4 9 -15
9 -25 0 -10 3 -20 8 -22 4 -1 14 -14 23 -27 l15 -24 209 2 c116 1 212 4 214 6
2 3 -13 32 -33 65 -20 34 -36 65 -36 70 0 5 -3 10 -7 12 -5 2 -18 23 -31 48
-12 25 -36 68 -52 95 -16 28 -33 57 -37 65 -3 8 -9 17 -12 20 -13 11 -112 201
-122 233 -7 26 -5 29 21 39 17 5 30 14 30 19 0 5 7 9 15 9 8 0 15 4 15 10 0 5
11 12 25 16 14 3 25 10 25 15 0 5 7 9 15 9 8 0 15 4 15 9 0 5 10 13 23 17 12
4 24 10 27 13 3 4 28 24 55 45 133 99 285 246 285 276 0 10 5 22 10 25 14 9
12 88 -2 117 -15 28 -95 108 -108 108 -4 0 -23 8 -42 17 -63 31 -68 33 -96 33
-15 0 -34 6 -40 13 -10 9 -71 12 -230 13 -173 1 -191 0 -90 -5 81 -4 132 -11
140 -18 6 -7 24 -13 39 -13 28 0 89 -29 89 -42 0 -5 7 -8 15 -8 8 0 15 -4 15
-9 0 -6 11 -22 25 -37 25 -27 36 -94 15 -94 -5 0 -10 -10 -10 -23 0 -12 -8
-30 -17 -38 -10 -9 -29 -30 -43 -48 -14 -17 -29 -31 -35 -31 -6 0 -19 -11 -29
-25 -10 -14 -25 -25 -32 -25 -7 0 -14 -3 -16 -7 -7 -18 -132 -93 -153 -93 -7
0 -15 -7 -19 -15 -3 -8 -14 -15 -25 -15 -11 0 -23 -4 -26 -10 -12 -20 -32 -9
-51 27 -10 21 -25 44 -31 51 -7 7 -13 20 -13 28 0 8 -4 14 -8 14 -4 0 -13 12
-19 28 -16 35 -49 92 -63 106 -5 5 -10 18 -10 27 0 10 -4 19 -9 21 -7 3 -54
81 -88 150 -8 15 -18 30 -24 33 -5 4 -9 15 -9 25 0 10 -4 20 -9 22 -7 3 -54
81 -88 150 -8 15 -18 30 -24 33 -5 4 -9 15 -9 26 0 10 -4 19 -9 19 -5 0 -11 8
-15 18 -3 9 -14 31 -24 47 -10 17 -34 57 -52 90 -18 33 -34 62 -36 64 -1 2
-22 -37 -44 -85z m97 -786 c11 -13 33 -48 49 -78 16 -30 31 -57 34 -60 3 -3
14 -23 25 -45 10 -22 25 -47 33 -57 19 -23 -4 -56 -45 -64 -18 -3 -33 -10 -33
-15 0 -5 -13 -9 -29 -9 -16 0 -34 -7 -41 -15 -7 -8 -23 -15 -36 -15 -12 0 -26
-4 -29 -10 -3 -5 -16 -10 -28 -10 -12 0 -35 -7 -51 -15 -32 -17 -62 -19 -71
-5 -5 8 18 61 93 220 10 19 20 37 25 38 4 2 7 9 7 15 0 16 63 147 71 147 3 0
15 -10 26 -22z m-650 -855 c-3 -10 -5 -4 -5 12 0 17 2 24 5 18 2 -7 2 -21 0
-30z"/>
<path d="M1660 2621 c0 -7 -22 -36 -50 -63 -27 -27 -50 -50 -50 -51 0 -1 37
-1 83 1 l83 3 -4 28 c-4 29 9 46 43 54 11 2 -3 5 -32 6 -38 1 -55 6 -62 19 -7
11 -10 12 -11 3z"/>
<path d="M1798 2613 c7 -3 16 -2 19 1 4 3 -2 6 -13 5 -11 0 -14 -3 -6 -6z"/>
<path d="M1878 1606 c-13 -9 -18 -27 -18 -60 0 -25 3 -46 8 -46 14 1 45 29 58
56 13 24 12 29 -2 46 -20 21 -23 22 -46 4z"/>
<path d="M1772 1580 c-12 -10 -22 -23 -22 -29 0 -6 -5 -11 -11 -11 -6 0 -9
-16 -7 -37 3 -37 4 -38 38 -35 37 4 68 22 37 22 -9 0 -17 7 -17 15 0 9 8 14
23 12 33 -3 37 44 5 65 -22 14 -26 14 -46 -2z"/>
<path d="M1527 1494 c-17 -17 -5 -34 24 -34 24 0 30 4 27 18 -3 17 -38 29 -51
16z"/>
<path d="M456 1014 c-17 -25 -17 -28 -1 -67 9 -23 21 -50 26 -59 5 -10 9 -26
9 -36 0 -10 7 -27 15 -38 8 -10 15 -27 15 -37 0 -9 4 -25 9 -35 23 -46 41 -95
41 -112 0 -10 4 -21 9 -24 5 -4 17 -32 27 -64 32 -104 61 -157 95 -169 48 -18
119 17 119 59 0 18 2 25 33 86 9 19 17 42 17 51 0 16 17 59 41 103 5 10 9 24
9 33 0 13 20 65 41 107 5 10 9 23 9 29 0 6 6 25 13 42 34 79 40 108 26 133
-19 36 -71 34 -88 -3 -30 -64 -40 -89 -44 -113 -5 -27 -42 -137 -64 -187 -7
-17 -13 -40 -13 -51 0 -12 -4 -24 -10 -27 -5 -3 -10 -16 -10 -27 0 -22 -37
-88 -49 -88 -10 0 -41 72 -41 96 0 10 -7 28 -15 38 -8 11 -15 32 -15 47 0 15
-4 31 -10 34 -5 3 -10 14 -10 23 0 9 -7 30 -15 46 -8 15 -15 36 -15 46 0 10
-7 31 -15 46 -8 16 -15 37 -15 46 0 9 -4 20 -10 23 -5 3 -10 14 -10 24 0 25
-32 51 -61 51 -14 0 -32 -11 -43 -26z"/>
<path d="M1137 1019 c-24 -27 -18 -57 15 -77 26 -15 28 -15 53 8 31 29 32 46
3 71 -30 24 -50 24 -71 -2z"/>
<path d="M2466 1007 c-15 -19 -26 -40 -26 -49 0 -8 -7 -23 -15 -34 -8 -10 -15
-29 -15 -41 0 -13 -4 -23 -10 -23 -5 0 -10 -10 -10 -23 0 -13 -7 -32 -15 -43
-8 -10 -15 -27 -15 -37 0 -9 -4 -25 -10 -35 -5 -9 -16 -34 -25 -54 -8 -21 -22
-53 -30 -72 -8 -19 -15 -41 -15 -50 0 -9 -4 -16 -10 -16 -5 0 -10 -7 -10 -15
0 -9 -6 -28 -14 -43 -30 -60 -29 -70 6 -92 18 -11 36 -20 39 -20 13 0 59 54
59 69 0 9 8 35 17 58 21 50 32 53 184 53 98 0 110 -2 129 -22 11 -12 20 -29
20 -38 0 -28 39 -99 61 -110 16 -9 26 -8 45 5 32 21 40 43 26 66 -7 10 -12 27
-12 37 0 10 -7 27 -15 38 -8 10 -15 29 -15 42 0 12 -4 22 -9 22 -5 0 -12 13
-16 30 -4 16 -11 32 -16 35 -5 4 -9 15 -9 25 0 10 -6 31 -14 47 -8 15 -20 42
-26 58 -7 17 -18 44 -25 60 -7 17 -20 48 -29 70 -10 22 -21 48 -26 57 -6 10
-10 24 -10 31 0 24 -39 47 -80 47 -33 0 -43 -5 -64 -33z m84 -129 c11 -12 20
-31 20 -43 0 -20 16 -61 41 -107 5 -10 9 -26 9 -36 0 -10 5 -23 11 -29 7 -7 9
-19 6 -28 -6 -13 -22 -15 -104 -13 -94 3 -98 4 -101 27 -2 13 1 28 7 34 6 6
11 18 11 27 0 8 7 28 15 44 8 15 15 34 15 41 0 16 37 105 44 105 3 0 14 -10
26 -22z"/>
<path d="M1970 994 c-6 -14 -10 -47 -10 -74 0 -64 -7 -80 -35 -80 -29 0 -39
-14 -31 -45 4 -17 14 -25 34 -27 l27 -3 5 -172 c6 -192 9 -200 78 -223 49 -15
142 1 159 29 19 31 -1 46 -61 46 -30 0 -58 4 -63 8 -10 10 -17 259 -9 293 5
19 13 24 40 24 21 0 40 8 52 21 18 20 18 21 -1 35 -10 8 -33 14 -51 14 -37 0
-44 15 -44 101 0 62 -11 79 -52 79 -21 0 -31 -6 -38 -26z"/>
<path d="M3557 1013 c-3 -5 -8 -33 -11 -63 -13 -102 -16 -110 -41 -110 -12 0
-26 -7 -29 -16 -9 -22 11 -54 34 -54 25 0 28 -14 33 -193 6 -171 12 -187 80
-206 36 -10 56 -10 101 0 55 12 57 13 54 43 -3 30 -5 31 -45 28 -81 -6 -83 -3
-83 173 l0 155 33 0 c69 1 93 55 30 65 -64 11 -63 9 -63 83 0 54 -4 72 -18 85
-19 17 -67 23 -75 10z"/>
<path d="M1142 837 c-21 -22 -22 -32 -22 -229 l0 -207 26 -20 c29 -23 55 -16
74 19 6 11 10 100 10 213 0 181 -1 196 -21 221 -25 32 -39 33 -67 3z"/>
<path d="M1520 850 c-8 -5 -32 -17 -53 -26 -44 -19 -77 -60 -100 -124 -42
-113 -5 -228 96 -308 9 -6 25 -12 36 -12 11 0 32 -5 48 -11 30 -11 173 7 173
23 0 4 6 8 13 8 22 0 67 58 67 85 0 37 -25 41 -62 11 -18 -15 -37 -30 -43 -34
-24 -19 -80 -42 -102 -42 -28 0 -69 24 -101 60 -17 19 -22 35 -20 65 l3 40
150 3 c178 3 191 9 182 82 -9 75 -43 126 -102 154 -22 10 -48 23 -57 27 -23
12 -109 10 -128 -1z m124 -79 c34 -19 64 -65 65 -97 2 -38 -20 -45 -130 -42
l-104 3 -3 37 c-7 88 93 146 172 99z"/>
<path d="M2967 842 c-15 -16 -17 -47 -17 -230 0 -196 1 -213 19 -231 17 -17
24 -18 50 -8 l31 11 0 149 c0 124 3 152 17 175 32 48 55 61 110 62 48 0 53 -2
72 -34 19 -30 21 -49 21 -192 l0 -160 31 -11 c26 -10 33 -9 51 9 19 19 20 29
16 202 -3 135 -7 187 -18 203 -17 27 -103 73 -135 73 -23 0 -96 -27 -105 -39
-3 -3 -14 -14 -26 -24 -21 -17 -22 -17 -48 23 -29 44 -45 49 -69 22z"/>
</g>
</svg>
