<?xml version="1.0" standalone="no"?>
<!DOCTYPE svg PUBLIC "-//W3C//DTD SVG 20010904//EN"
 "http://www.w3.org/TR/2001/REC-SVG-20010904/DTD/svg10.dtd">
<svg version="1.0" xmlns="http://www.w3.org/2000/svg"
 width="388.000000pt" height="374.000000pt" viewBox="0 0 388.000000 374.000000"
 preserveAspectRatio="xMidYMid meet">

<g transform="translate(0.000000,374.000000) scale(0.100000,-0.100000)"
fill="#000000" stroke="none">
<path d="M0 1870 l0 -1870 1940 0 1940 0 0 1279 c0 1124 -2 1280 -15 1291 -8
7 -15 21 -15 31 0 12 -7 19 -19 19 -13 0 -22 12 -31 45 l-13 45 -102 0 c-100
0 -103 1 -109 24 -8 31 2 56 21 56 12 0 12 2 0 14 -8 8 -20 28 -27 45 -7 17
-20 31 -29 31 -9 0 -22 5 -28 11 -6 6 -21 16 -34 23 -12 6 -27 20 -33 31 -6
11 -35 44 -63 74 -29 30 -53 63 -53 73 0 15 -8 18 -44 18 -26 0 -48 6 -56 15
-7 8 -21 15 -31 15 -10 0 -21 5 -24 11 -4 5 -18 14 -31 19 -22 9 -28 23 -27
66 0 11 -26 12 -44 1 -13 -8 -22 11 -15 35 2 10 19 18 50 23 51 8 41 25 -15
25 -27 0 -32 4 -38 31 -4 18 -3 35 4 42 6 6 11 24 11 39 0 26 -1 27 -19 12
-18 -16 -19 -46 -20 -731 l-2 -716 237 4 c213 4 238 2 247 -13 8 -12 7 -20 -1
-31 -10 -12 -48 -13 -219 -10 -115 2 -627 3 -1139 3 -852 0 -932 2 -938 17 -4
9 -4 19 0 22 3 3 101 6 217 6 l212 0 1 283 c1 155 3 284 5 285 2 2 36 18 74
36 39 18 88 41 111 52 50 23 110 24 164 3 62 -25 67 -19 69 90 0 53 -4 118
-10 143 -15 69 -7 85 53 112 29 13 82 37 117 54 64 30 65 30 143 18 43 -7 83
-9 88 -6 17 10 12 245 -5 279 -25 47 -19 62 22 57 6 -1 14 3 18 9 3 5 19 10
36 10 30 0 39 14 15 23 -7 3 -16 15 -19 26 -5 19 -1 21 40 21 36 0 53 7 88 35
34 28 44 32 49 20 3 -8 13 -15 21 -15 9 0 23 -7 31 -15 9 -8 26 -15 40 -15 13
0 24 -4 24 -10 0 -5 8 -10 17 -10 13 0 14 3 5 12 -7 7 -12 25 -12 40 0 31 -7
34 -44 17 -20 -9 -29 -9 -41 1 -14 12 -14 15 0 36 22 34 19 56 -7 52 -14 -2
-25 -14 -31 -33 -13 -39 -10 -38 -41 -24 -14 7 -26 20 -26 30 0 23 -15 27
-117 35 -49 3 -92 10 -96 14 -16 14 -2 44 23 51 25 7 25 7 2 8 -13 1 -20 6
-17 11 4 7 -403 10 -1214 10 l-1221 0 0 -1870z m1679 1596 c9 -11 2 -14 -41
-19 -28 -4 -56 -11 -62 -17 -5 -5 -21 -10 -35 -10 -15 0 -35 -7 -45 -15 -11
-8 -30 -15 -42 -15 -12 0 -27 -7 -34 -15 -7 -8 -21 -15 -31 -15 -11 0 -19 -4
-19 -8 0 -5 -19 -16 -42 -26 -24 -9 -50 -21 -58 -27 -8 -5 -24 -13 -36 -18
-11 -5 -40 -28 -63 -50 -23 -23 -46 -41 -51 -41 -5 0 -10 -3 -12 -7 -1 -5 -20
-23 -41 -41 -34 -28 -43 -31 -80 -26 -42 6 -42 5 -20 -13 20 -16 20 -20 8 -37
-16 -21 -17 -21 -34 12 -10 20 -10 27 3 41 9 10 16 22 16 27 0 6 18 23 40 40
22 16 40 32 40 37 0 4 9 7 20 7 10 0 23 6 27 13 4 6 28 23 53 36 25 13 51 33
58 43 7 10 23 18 36 18 13 0 31 9 41 20 10 11 23 20 30 20 6 0 17 6 23 12 11
11 69 28 157 45 17 3 37 11 45 18 29 25 131 32 149 11z m419 -13 c-10 -2 -26
-2 -35 0 -10 3 -2 5 17 5 19 0 27 -2 18 -5z m-88 -23 c0 -5 -15 -10 -32 -10
-18 0 -49 -4 -68 -9 -52 -13 -184 -62 -190 -70 -3 -4 -26 -15 -52 -25 -25 -9
-52 -24 -58 -32 -7 -7 -17 -14 -22 -14 -12 0 -108 -63 -135 -89 -12 -11 -29
-21 -38 -21 -8 0 -15 -7 -15 -15 0 -8 -3 -15 -7 -15 -11 0 -105 -91 -123 -118
-19 -29 -40 -29 -32 1 3 12 10 25 16 29 6 4 7 10 2 15 -4 4 -12 0 -17 -10 -6
-9 -21 -17 -34 -17 -16 0 -25 -6 -25 -15 0 -8 -4 -15 -10 -15 -16 0 -12 42 7
62 9 10 20 18 25 18 4 0 25 18 47 40 48 49 83 64 103 44 16 -17 48 -9 48 12 0
7 -9 18 -20 24 -29 16 -25 22 28 47 26 13 70 36 97 53 60 36 91 50 111 50 8 0
14 4 14 9 0 5 17 12 37 16 20 4 46 13 57 21 11 8 37 14 57 14 20 0 50 7 65 15
33 17 164 21 164 5z m-1110 -376 c0 -8 9 -14 20 -14 11 0 20 -7 20 -15 0 -21
-37 -19 -62 5 -17 16 -19 22 -8 35 14 17 30 11 30 -11z m240 -103 c0 -10 -9
-21 -20 -24 -23 -6 -24 -3 -8 23 16 25 28 26 28 1z m60 -15 c0 -7 -7 -19 -15
-26 -8 -7 -15 -20 -16 -29 0 -10 -2 -11 -6 -3 -5 14 18 72 29 72 5 0 8 -6 8
-14z m-114 -70 c-2 -17 -36 -51 -36 -37 0 14 23 51 32 51 3 0 5 -6 4 -14z
m2425 -1075 l24 -19 -3 -218 c-3 -162 -7 -220 -16 -230 -17 -17 -26 -8 -26 26
0 17 -8 33 -22 42 -19 13 -22 25 -23 76 -1 49 -5 66 -24 86 -12 13 -24 32 -25
42 -5 32 -26 28 -27 -5 -2 -53 -3 -56 -26 -59 -20 -3 -23 1 -23 32 0 25 6 40
20 48 11 7 20 20 20 28 0 10 -8 6 -24 -12 -29 -35 -46 -36 -46 -3 l0 24 -100
-6 c-72 -4 -100 -3 -100 5 0 13 13 15 73 12 39 -2 47 9 22 30 -23 19 -18 33
23 71 36 33 40 34 119 34 45 0 85 3 89 8 14 14 72 7 95 -12z m-784 -7 c-3 -3
-12 -4 -19 -1 -8 3 -5 6 6 6 11 1 17 -2 13 -5z m71 -36 c16 -16 15 -28 -3 -28
-8 0 -19 9 -25 20 -8 15 -8 20 3 20 7 0 18 -5 25 -12z m102 -108 c0 -5 -4 -10
-10 -10 -5 0 -10 5 -10 10 0 6 5 10 10 10 6 0 10 -4 10 -10z m-60 -60 c0 -5
-7 -7 -15 -4 -8 4 -15 8 -15 10 0 2 7 4 15 4 8 0 15 -4 15 -10z m-55 -50 c3
-5 1 -10 -4 -10 -6 0 -11 5 -11 10 0 6 2 10 4 10 3 0 8 -4 11 -10z m560 -48
c0 -20 -6 -37 -12 -39 -9 -3 -13 8 -13 35 0 25 5 39 13 39 8 0 13 -13 12 -35z"/>
<path d="M3390 1760 c0 -5 7 -10 15 -10 8 0 15 5 15 10 0 6 -7 10 -15 10 -8 0
-15 -4 -15 -10z"/>
<path d="M3304 1695 c-8 -19 2 -45 16 -45 12 0 30 41 23 53 -7 13 -33 8 -39
-8z"/>
<path d="M3397 1676 c-6 -15 1 -26 15 -26 4 0 8 9 8 20 0 23 -15 27 -23 6z"/>
<path d="M2852 3588 c-7 -7 -12 -20 -12 -31 0 -24 33 -19 38 7 5 24 -11 39
-26 24z"/>
<path d="M2640 3490 c0 -5 12 -10 26 -10 14 0 23 4 19 10 -3 6 -15 10 -26 10
-10 0 -19 -4 -19 -10z"/>
<path d="M2562 3464 c2 -8 6 -15 11 -15 4 1 16 1 27 1 11 0 20 7 20 15 0 10
-10 15 -31 15 -22 0 -30 -4 -27 -16z"/>
<path d="M2947 3473 c-14 -13 -6 -23 18 -23 16 0 25 6 25 15 0 15 -31 21 -43
8z"/>
<path d="M2595 3376 c-39 -18 -75 -39 -80 -47 -6 -8 -9 -67 -7 -145 l4 -132
40 -6 c73 -12 69 20 68 -536 -1 -275 2 -505 5 -510 8 -12 65 -13 84 -1 12 8
14 84 11 478 -1 257 -5 572 -9 698 -7 268 0 255 -116 201z"/>
<path d="M2245 3001 c-11 -3 -40 -16 -65 -28 -25 -11 -53 -23 -62 -27 -16 -5
-18 -21 -18 -156 0 -112 3 -152 13 -154 6 -3 23 -7 37 -10 53 -12 51 -5 49
-277 -1 -140 -2 -273 -3 -296 -1 -39 2 -44 28 -53 37 -13 73 -13 81 0 8 12 7
974 -1 995 -6 16 -25 18 -59 6z"/>
<path d="M1850 2613 c-44 -16 -161 -76 -166 -85 -4 -6 -6 -116 -5 -244 1 -139
-2 -241 -8 -252 -8 -16 -5 -20 22 -29 18 -6 71 -11 119 -11 74 -1 88 2 93 17
7 24 -1 586 -9 600 -8 12 -21 13 -46 4z"/>
</g>
</svg>
