<?xml version="1.0" standalone="no"?>
<!DOCTYPE svg PUBLIC "-//W3C//DTD SVG 20010904//EN"
 "http://www.w3.org/TR/2001/REC-SVG-20010904/DTD/svg10.dtd">
<svg version="1.0" xmlns="http://www.w3.org/2000/svg"
 width="166.000000pt" height="195.000000pt" viewBox="0 0 166.000000 195.000000"
 preserveAspectRatio="xMidYMid meet">

<g transform="translate(0.000000,195.000000) scale(0.100000,-0.100000)"
fill="#000000" stroke="none">
<path d="M700 1595 c-36 -8 -108 -36 -160 -62 -213 -106 -373 -333 -396 -558
l-7 -65 32 0 c17 0 54 11 81 25 55 28 130 44 130 27 0 -29 -25 -62 -46 -62
-12 0 -51 -13 -86 -30 -34 -16 -73 -30 -85 -30 -18 0 -23 -6 -23 -25 0 -34 25
-33 100 5 67 34 106 39 96 14 -3 -9 -6 -22 -6 -30 0 -8 -7 -14 -15 -14 -9 0
-38 -11 -65 -25 -27 -14 -60 -27 -72 -29 -16 -2 -22 -9 -20 -22 7 -38 22 -40
73 -11 63 35 89 36 89 2 0 -16 -6 -25 -15 -25 -9 0 -33 -11 -55 -25 -22 -14
-44 -25 -50 -25 -13 0 -13 -20 0 -40 8 -13 12 -13 32 -1 71 45 98 48 98 11 0
-10 -9 -20 -23 -24 -12 -3 -35 -16 -50 -28 -26 -21 -27 -25 -13 -43 14 -20 15
-20 45 3 17 12 35 22 41 22 6 0 8 10 4 24 -5 21 -1 24 33 29 47 8 83 32 83 56
0 11 16 41 35 67 68 95 69 98 51 170 -9 35 -16 80 -16 101 0 42 37 130 63 152
22 18 21 9 -3 -36 -29 -55 -34 -112 -16 -176 26 -90 22 -126 -23 -189 -51 -71
-58 -98 -36 -154 20 -52 14 -64 -46 -95 -47 -24 -85 -24 -98 -2 -8 14 -13 15
-35 5 -34 -15 -43 -39 -23 -59 14 -14 17 -13 38 6 27 25 38 26 46 5 3 -9 -3
-21 -16 -30 -25 -18 -27 -37 -5 -55 14 -11 19 -10 35 10 19 23 39 21 39 -3 0
-8 -7 -19 -15 -26 -17 -14 -12 -25 16 -40 15 -9 21 -7 26 7 3 10 19 37 35 61
16 23 35 59 42 80 l14 37 7 -28 c6 -22 -1 -44 -30 -102 -38 -72 -41 -105 -10
-105 8 0 15 8 15 18 0 9 14 44 30 77 39 79 38 116 -5 187 -46 77 -51 113 -23
160 13 20 36 57 52 83 l29 47 -21 74 c-36 122 -27 191 33 262 38 45 43 33 9
-23 -34 -59 -36 -133 -5 -219 32 -91 27 -116 -40 -209 -39 -53 -37 -89 7 -162
52 -86 54 -123 10 -215 -40 -82 -44 -105 -20 -114 22 -8 21 -9 29 22 3 15 22
59 41 99 19 39 34 82 34 95 0 13 -20 57 -45 98 -61 102 -60 125 12 219 40 53
42 89 9 174 -13 34 -27 75 -30 90 -9 40 18 125 53 167 36 42 52 34 20 -9 -38
-52 -38 -138 0 -233 42 -103 40 -132 -10 -207 -54 -81 -54 -112 0 -194 59 -91
61 -111 16 -205 -44 -94 -50 -146 -19 -150 18 -3 22 3 26 36 3 21 20 70 37
109 17 39 31 84 31 100 0 15 -21 62 -45 103 -52 85 -57 126 -22 173 12 16 31
49 43 71 12 25 26 40 35 37 16 -4 84 -4 113 1 13 2 21 -5 27 -24 4 -15 22 -48
40 -73 45 -62 43 -98 -10 -179 -59 -89 -60 -114 -17 -213 20 -45 36 -95 36
-113 0 -27 3 -31 23 -28 18 3 22 9 20 38 -1 20 -16 65 -32 100 -42 89 -41 128
9 210 59 98 60 113 8 190 -37 56 -43 72 -42 115 1 31 12 72 28 108 35 77 36
156 1 221 -26 49 -21 60 12 24 29 -32 51 -79 59 -125 4 -30 -2 -61 -26 -131
-37 -108 -35 -124 20 -206 51 -75 51 -104 1 -187 -56 -93 -58 -111 -17 -195
18 -39 37 -85 41 -103 5 -23 11 -31 22 -27 8 3 17 6 19 6 13 0 -1 50 -32 112
-44 88 -43 126 10 212 48 79 47 106 -9 190 -25 38 -45 81 -45 95 0 14 12 62
26 106 29 91 26 134 -12 204 -30 55 -25 62 11 19 59 -70 70 -146 35 -256 -11
-35 -20 -70 -20 -77 0 -8 21 -44 47 -82 61 -88 63 -123 10 -209 -21 -36 -37
-74 -37 -92 0 -29 68 -192 80 -192 3 0 11 4 18 9 10 6 4 26 -26 89 -26 53 -38
89 -35 106 7 34 23 34 23 0 0 -14 9 -39 20 -54 11 -16 31 -47 43 -69 22 -39
24 -40 46 -25 20 15 21 18 7 39 -13 20 -13 25 -2 35 11 8 18 6 30 -11 15 -22
16 -22 36 -4 l20 18 -27 29 c-21 22 -24 31 -15 40 9 9 19 7 43 -11 29 -22 31
-22 44 -4 12 16 11 21 -7 41 -25 25 -53 29 -62 7 -7 -20 -42 -19 -91 4 -60 27
-70 43 -51 80 27 52 20 90 -29 165 -49 75 -53 97 -30 172 22 73 19 133 -10
190 -30 59 -30 62 -6 40 31 -28 61 -102 61 -150 0 -25 -7 -70 -15 -101 -17
-65 -15 -71 42 -149 24 -32 43 -69 43 -82 0 -17 10 -29 40 -44 51 -26 80 -26
80 0 0 32 27 35 70 6 22 -14 44 -26 49 -26 9 0 26 39 19 44 -26 19 -100 56
-112 56 -10 0 -16 9 -16 25 0 33 29 33 87 -1 25 -14 50 -23 57 -21 17 7 28 47
13 47 -7 0 -46 16 -87 35 -57 26 -76 40 -81 60 -10 35 15 33 91 -5 75 -38 100
-39 100 -5 0 19 -5 25 -22 25 -13 0 -52 14 -86 30 -35 17 -74 30 -86 30 -21 0
-46 33 -46 60 0 19 51 10 117 -20 36 -16 79 -30 94 -30 26 0 29 3 29 33 0 59
-38 189 -81 277 -34 67 -60 102 -128 170 -152 152 -283 210 -491 216 -85 2
-146 -1 -190 -11z m257 -115 l47 0 -36 -37 c-36 -38 -36 -38 -21 -75 l15 -38
31 24 c33 25 113 53 123 44 3 -3 -6 -29 -20 -57 -15 -28 -22 -51 -17 -51 6 0
12 4 15 9 7 10 95 36 102 29 2 -3 -10 -28 -28 -55 -18 -28 -37 -58 -43 -67 -9
-15 -17 -14 -85 11 -62 22 -92 26 -175 26 -83 0 -113 -4 -175 -26 -67 -24 -76
-26 -85 -11 -5 8 -25 38 -43 66 -18 28 -30 53 -27 57 5 5 49 -9 109 -34 17 -7
15 0 -12 48 -32 56 -32 57 -10 57 28 0 123 -43 134 -61 5 -9 13 -1 25 27 l17
39 -36 38 -36 37 48 0 c47 0 47 1 68 47 l21 47 24 -47 c23 -46 24 -47 70 -47z
m-608 -274 c12 -18 21 -41 21 -50 0 -19 21 -21 38 -4 11 11 126 18 136 7 3 -3
-26 -38 -66 -77 -65 -66 -75 -72 -112 -72 -23 0 -61 -10 -86 -21 -54 -26 -120
-40 -120 -27 0 5 16 29 35 52 44 54 82 139 89 196 2 25 5 46 5 48 3 10 43 -24
60 -52z m1096 7 c9 -62 47 -146 90 -199 19 -23 35 -45 35 -48 0 -14 -55 -4
-110 19 -33 14 -77 25 -98 25 -34 0 -46 8 -109 71 l-71 70 27 11 c25 9 56 5
129 -17 18 -6 22 -3 22 12 0 22 55 103 69 103 5 0 12 -21 16 -47z m-515 -9
c34 -14 80 -58 80 -78 0 -3 -13 -3 -30 0 -16 4 -43 1 -60 -6 -27 -11 -30 -17
-30 -59 1 -38 3 -43 13 -30 8 10 27 15 57 14 l45 -1 -2 -47 c-2 -58 -43 -122
-95 -149 -32 -17 -43 -18 -72 -8 -20 6 -46 24 -60 40 -30 37 -59 110 -54 141
3 22 7 24 61 23 56 -1 57 0 57 27 0 36 -38 63 -80 57 -53 -8 -29 44 33 73 52
23 85 24 137 3z m-135 -108 c17 -12 15 -14 -23 -18 -35 -3 -42 -1 -42 14 0 22
38 24 65 4z m208 0 c8 -20 3 -22 -44 -18 -39 4 -41 6 -24 18 24 18 61 18 68 0z"/>
<path d="M830 1332 l-32 -27 71 0 c39 0 71 0 71 1 0 1 -17 13 -39 27 l-38 26
-33 -27z"/>
<path d="M843 969 c11 -7 23 -7 35 0 14 9 11 10 -18 10 -29 0 -32 -1 -17 -10z"/>
<path d="M830 915 c7 -8 23 -15 35 -15 12 0 28 7 35 15 11 13 6 15 -35 15 -41
0 -46 -2 -35 -15z"/>
<path d="M1400 571 c0 -5 -3 -16 -6 -25 -4 -10 -1 -16 9 -16 8 0 27 -10 42
-22 27 -21 28 -21 42 -2 12 17 11 21 -19 46 -32 27 -68 37 -68 19z"/>
<path d="M1350 201 c0 -5 5 -13 10 -16 6 -3 10 -2 10 4 0 5 -4 13 -10 16 -5 3
-10 2 -10 -4z"/>
<path d="M1406 194 c-3 -8 -2 -13 3 -9 5 3 12 -1 14 -7 3 -7 6 -3 6 10 1 25
-14 30 -23 6z"/>
</g>
</svg>
