<?xml version="1.0" standalone="no"?>
<!DOCTYPE svg PUBLIC "-//W3C//DTD SVG 20010904//EN"
 "http://www.w3.org/TR/2001/REC-SVG-20010904/DTD/svg10.dtd">
<svg version="1.0" xmlns="http://www.w3.org/2000/svg"
 width="203.000000pt" height="207.000000pt" viewBox="0 0 203.000000 207.000000"
 preserveAspectRatio="xMidYMid meet">

<g transform="translate(0.000000,207.000000) scale(0.100000,-0.100000)"
fill="#000000" stroke="none">
<path d="M1330 1946 c-161 -42 -281 -169 -311 -329 -15 -82 -10 -91 50 -84
108 13 214 95 270 208 32 65 59 196 44 210 -5 4 -28 2 -53 -5z"/>
<path d="M1250 1490 c-36 -10 -100 -31 -143 -46 l-79 -28 -126 43 c-116 40
-132 43 -204 39 -194 -11 -362 -166 -413 -380 -35 -148 -9 -385 61 -560 59
-147 161 -308 240 -377 l35 -31 135 0 c85 0 167 6 219 16 77 15 88 15 155 0
89 -20 332 -22 369 -3 54 27 199 244 250 374 l21 53 -53 33 c-174 112 -238
308 -166 503 17 46 39 76 95 132 l73 74 -49 49 c-77 77 -210 130 -319 128 -20
0 -65 -8 -101 -19z"/>
</g>
</svg>
