<?xml version="1.0" standalone="no"?>
<!DOCTYPE svg PUBLIC "-//W3C//DTD SVG 20010904//EN"
 "http://www.w3.org/TR/2001/REC-SVG-20010904/DTD/svg10.dtd">
<svg version="1.0" xmlns="http://www.w3.org/2000/svg"
 width="185.000000pt" height="176.000000pt" viewBox="0 0 185.000000 176.000000"
 preserveAspectRatio="xMidYMid meet">

<g transform="translate(0.000000,176.000000) scale(0.100000,-0.100000)"
fill="#000000" stroke="none">
<path d="M760 1609 c-87 -15 -214 -63 -292 -110 -98 -58 -252 -212 -304 -304
-46 -81 -85 -176 -105 -255 -15 -59 -19 -296 -6 -342 5 -20 44 -54 141 -124
l135 -97 7 -76 c4 -42 12 -114 18 -161 l11 -85 273 -6 c149 -3 395 -3 545 0
l272 6 19 163 19 163 132 94 c73 52 135 102 139 111 3 8 9 59 12 112 26 401
-245 780 -638 892 -85 25 -290 35 -378 19z m113 -216 c4 -38 12 -221 19 -408
6 -186 15 -326 19 -310 4 17 12 181 18 365 6 184 14 355 18 379 l6 43 71 -4
c57 -4 120 -23 144 -43 2 -2 -31 -175 -72 -385 -42 -210 -76 -387 -75 -394 0
-6 47 153 105 354 58 201 109 369 114 374 15 15 55 -2 119 -49 38 -28 61 -52
61 -64 0 -17 -52 -132 -266 -588 -24 -51 -42 -93 -39 -93 2 0 58 96 125 213
68 116 147 254 178 305 l55 93 24 -23 c13 -12 40 -55 60 -95 l35 -72 -195
-238 c-107 -131 -193 -239 -192 -241 1 -1 90 86 197 195 186 187 196 195 207
174 15 -28 26 -147 17 -193 -5 -30 -22 -46 -129 -123 -67 -49 -127 -95 -133
-102 -6 -7 -17 -64 -24 -125 -7 -62 -14 -118 -17 -125 -4 -10 -43 -13 -164
-13 -152 0 -159 -1 -195 -25 -46 -31 -62 -31 -108 0 -34 23 -45 25 -199 27
l-162 3 -16 128 c-9 71 -20 132 -26 135 -97 66 -252 185 -257 198 -12 32 -6
165 10 202 l16 37 206 -210 c113 -115 202 -203 197 -195 -5 8 -70 89 -144 180
-278 338 -255 306 -240 343 16 41 71 128 91 145 14 11 36 -22 176 -265 87
-153 165 -289 171 -301 7 -13 14 -22 17 -20 2 3 -60 139 -137 304 -78 164
-147 314 -155 333 -15 33 -15 33 28 73 68 63 158 100 158 66 0 -20 203 -728
208 -724 2 2 -31 176 -73 386 -42 210 -74 387 -72 395 9 21 86 43 153 44 l61
1 6 -67z"/>
</g>
</svg>
