<?xml version="1.0" standalone="no"?>
<!DOCTYPE svg PUBLIC "-//W3C//DTD SVG 20010904//EN"
 "http://www.w3.org/TR/2001/REC-SVG-20010904/DTD/svg10.dtd">
<svg version="1.0" xmlns="http://www.w3.org/2000/svg"
 width="174.000000pt" height="168.000000pt" viewBox="0 0 174.000000 168.000000"
 preserveAspectRatio="xMidYMid meet">

<g transform="translate(0.000000,168.000000) scale(0.100000,-0.100000)"
fill="#000000" stroke="none">
<path d="M756 1604 c-264 -59 -474 -248 -563 -507 -34 -99 -43 -269 -19 -387
77 -378 446 -642 828 -591 109 14 240 61 323 116 136 90 248 239 302 400 25
72 27 94 28 230 0 163 -12 219 -75 345 -89 177 -268 325 -460 380 -101 29
-270 35 -364 14z m256 -245 c178 -37 337 -188 384 -364 19 -68 17 -200 -2
-266 -48 -160 -163 -284 -320 -340 -91 -34 -246 -32 -337 4 -203 79 -327 258
-327 471 0 147 44 252 149 357 123 122 288 172 453 138z"/>
<path d="M827 1116 c-99 -36 -177 -142 -177 -240 0 -139 124 -266 260 -266
106 0 216 83 245 185 49 168 -73 334 -245 334 -25 0 -62 -6 -83 -13z"/>
<path d="M1400 233 c14 -3 31 -10 38 -15 18 -15 15 -69 -5 -84 -10 -7 -13 -14
-7 -14 18 0 37 28 37 55 0 35 -30 65 -62 64 l-26 -2 25 -4z"/>
<path d="M1352 218 c-25 -25 -9 -98 21 -98 5 0 1 7 -7 16 -19 18 -21 65 -4 82
7 7 10 12 7 12 -3 0 -10 -5 -17 -12z"/>
<path d="M1380 178 c0 -25 3 -29 10 -18 8 12 12 13 19 2 6 -10 10 -8 14 9 4
13 2 28 -4 34 -7 7 -8 4 -4 -7 5 -13 2 -18 -10 -18 -11 0 -15 5 -11 15 3 8 1
15 -4 15 -6 0 -10 -15 -10 -32z"/>
</g>
</svg>
