<?xml version="1.0" standalone="no"?>
<!DOCTYPE svg PUBLIC "-//W3C//DTD SVG 20010904//EN"
 "http://www.w3.org/TR/2001/REC-SVG-20010904/DTD/svg10.dtd">
<svg version="1.0" xmlns="http://www.w3.org/2000/svg"
 width="241.000000pt" height="209.000000pt" viewBox="0 0 241.000000 209.000000"
 preserveAspectRatio="xMidYMid meet">

<g transform="translate(0.000000,209.000000) scale(0.100000,-0.100000)"
fill="#000000" stroke="none">
<path d="M1133 1483 l-333 -3 -4 -23 c-3 -12 -7 -162 -10 -332 -3 -241 -1
-314 8 -328 12 -15 32 -17 160 -17 80 0 146 -2 146 -5 0 -4 -7 -19 -15 -35
-19 -37 -62 -70 -91 -70 -15 0 -24 -6 -24 -15 0 -13 32 -15 226 -15 169 0 225
3 222 12 -2 6 -20 17 -39 23 -36 12 -79 65 -79 97 0 17 7 19 93 16 l92 -3 5
-88 c4 -63 9 -90 20 -97 23 -15 243 -12 263 3 16 11 17 35 15 242 l-3 230 -80
5 -80 5 -5 187 c-3 113 -9 191 -16 198 -15 15 -92 17 -471 13z m445 -35 c8 -8
12 -65 12 -190 l0 -178 -39 0 c-48 0 -59 -13 -63 -75 -2 -28 -6 -49 -10 -47
-5 1 -159 2 -343 2 l-335 0 0 240 c0 217 2 240 18 249 26 16 744 15 760 -1z
m187 -418 l0 -25 -123 -3 c-102 -2 -123 0 -128 13 -3 8 -3 22 0 30 5 13 26 15
128 13 l123 -3 0 -25z m5 -195 l0 -145 -130 0 -130 0 0 145 0 145 130 0 130 0
0 -145z m-280 30 l0 -65 -329 0 c-372 0 -361 -2 -361 74 0 23 3 46 7 49 3 4
159 7 345 7 l338 0 0 -65z m-221 -116 c7 -13 22 -36 33 -51 l19 -28 -121 0
c-66 0 -120 2 -120 5 0 4 44 73 58 90 4 6 32 9 62 9 46 -1 57 -5 69 -25z m499
-106 l-3 -28 -125 0 -125 0 -3 28 -3 27 131 0 131 0 -3 -27z"/>
</g>
</svg>
