<?xml version="1.0" encoding="UTF-8"?>
<svg xmlns="http://www.w3.org/2000/svg" xmlns:xlink="http://www.w3.org/1999/xlink" width="36px" height="px" viewBox="0 0 36 29" version="1.1">
<g id="surface1">
<path style=" stroke:none;fill-rule:nonzero;fill:rgb(0%,0%,0%);fill-opacity:1;" d="M 18.300781 0.925781 C 17.496094 1.183594 16.546875 1.761719 16.074219 2.265625 C 15.699219 2.671875 14.519531 4.578125 14.519531 4.792969 C 14.519531 4.867188 14.738281 4.910156 15.007812 4.910156 C 15.398438 4.910156 15.671875 4.738281 16.433594 4.042969 C 16.949219 3.566406 17.425781 3.175781 17.496094 3.175781 C 17.570312 3.175781 18.203125 4.839844 18.90625 6.875 C 19.609375 8.910156 20.300781 10.730469 20.457031 10.917969 C 20.703125 11.234375 21.796875 11.65625 21.953125 11.496094 C 21.996094 11.46875 21.59375 10.210938 21.078125 8.722656 C 20.542969 7.234375 20.15625 5.992188 20.199219 5.9375 C 20.34375 5.804688 20.515625 6.195312 21.363281 8.621094 C 21.808594 9.90625 22.253906 11.035156 22.355469 11.121094 C 22.601562 11.324219 23.449219 11.566406 23.59375 11.46875 C 23.648438 11.4375 23.621094 11.164062 23.507812 10.859375 C 22.515625 8.160156 21.851562 6.253906 21.851562 6.082031 C 21.851562 5.574219 22.167969 6.269531 22.929688 8.449219 C 23.378906 9.71875 23.878906 10.902344 24.039062 11.0625 C 24.3125 11.367188 24.972656 11.597656 25.1875 11.46875 C 25.246094 11.4375 25.015625 10.671875 24.699219 9.777344 C 23.433594 6.269531 23.261719 5.691406 23.5625 5.992188 C 23.648438 6.082031 24.050781 7.148438 24.484375 8.390625 C 24.914062 9.632812 25.347656 10.773438 25.433594 10.945312 C 25.605469 11.265625 26.582031 11.625 26.753906 11.4375 C 26.855469 11.335938 24.238281 3.871094 23.824219 3.078125 C 23.449219 2.382812 22.585938 1.601562 21.722656 1.183594 C 20.773438 0.738281 19.222656 0.621094 18.300781 0.925781 Z M 18.300781 0.925781 "/>
<path style=" stroke:none;fill-rule:nonzero;fill:rgb(0%,0%,0%);fill-opacity:1;" d="M 8.296875 6.082031 C 6.84375 6.425781 5.59375 7.453125 4.972656 8.808594 C 4.671875 9.445312 4.601562 9.820312 4.601562 10.757812 C 4.601562 12.203125 5.03125 13.214844 6.238281 14.558594 L 7.042969 15.46875 L 7.1875 15.09375 C 7.402344 14.515625 7.375 14.269531 6.902344 13.242188 C 6.671875 12.710938 6.46875 12.21875 6.46875 12.132812 C 6.46875 12.042969 7.851562 11.988281 10.496094 11.988281 C 14.964844 11.988281 15.152344 11.957031 15.570312 11.089844 L 15.800781 10.613281 L 12.851562 10.570312 C 11.054688 10.558594 9.921875 10.484375 9.921875 10.398438 C 9.921875 10.3125 10.96875 10.253906 12.667969 10.253906 L 15.414062 10.253906 L 15.828125 9.835938 C 16.664062 8.984375 16.5625 8.953125 13.371094 8.953125 C 11.542969 8.953125 10.496094 8.894531 10.496094 8.808594 C 10.496094 8.722656 11.515625 8.664062 13.285156 8.664062 C 16.289062 8.664062 16.519531 8.609375 16.75 7.828125 L 16.835938 7.511719 L 13.960938 7.511719 C 12.132812 7.511719 11.070312 7.453125 11.070312 7.367188 C 11.070312 7.277344 12.078125 7.222656 13.816406 7.222656 L 16.5625 7.222656 L 16.992188 6.789062 C 17.222656 6.542969 17.394531 6.269531 17.351562 6.167969 C 17.28125 5.949219 9.171875 5.863281 8.296875 6.082031 Z M 8.296875 6.082031 "/>
<path style=" stroke:none;fill-rule:nonzero;fill:rgb(0%,0%,0%);fill-opacity:1;" d="M 27.101562 8.1875 C 27.230469 8.738281 27.359375 8.867188 28.480469 9.5625 C 29.027344 9.894531 29.472656 10.210938 29.472656 10.269531 C 29.472656 10.3125 27.949219 11.378906 26.09375 12.621094 C 24.226562 13.878906 22.644531 15.035156 22.558594 15.191406 C 22.386719 15.527344 22.34375 16.363281 22.484375 16.59375 C 22.542969 16.679688 23.550781 16.101562 24.957031 15.148438 C 26.265625 14.253906 27.375 13.574219 27.417969 13.632812 C 27.53125 13.75 27.746094 13.589844 25.21875 15.28125 C 24.023438 16.074219 23.003906 16.839844 22.945312 16.96875 C 22.832031 17.273438 22.832031 18.125 22.945312 18.226562 C 22.988281 18.269531 24.082031 17.589844 25.390625 16.722656 C 26.699219 15.84375 27.804688 15.164062 27.847656 15.222656 C 27.964844 15.335938 28.179688 15.164062 25.707031 16.8125 C 24.554688 17.578125 23.519531 18.3125 23.421875 18.429688 C 23.234375 18.660156 23.191406 19.582031 23.347656 19.742188 C 23.390625 19.785156 24.46875 19.136719 25.734375 18.285156 C 27.015625 17.433594 28.121094 16.753906 28.191406 16.78125 C 28.28125 16.8125 27.34375 17.503906 26.121094 18.328125 C 23.765625 19.886719 23.421875 20.261719 23.664062 21 C 23.792969 21.359375 23.824219 21.34375 27.332031 19.007812 C 29.585938 17.488281 31.082031 16.378906 31.472656 15.945312 L 32.0625 15.265625 L 32.0625 10.757812 L 31.601562 10.09375 C 30.996094 9.183594 30.019531 8.5625 28.597656 8.144531 C 27.058594 7.699219 26.972656 7.699219 27.101562 8.1875 Z M 27.101562 8.1875 "/>
<path style=" stroke:none;fill-rule:nonzero;fill:rgb(0%,0%,0%);fill-opacity:1;" d="M 9.015625 12.519531 C 8.929688 12.664062 6.84375 19.195312 6.542969 20.261719 C 5.851562 22.71875 7.589844 25.460938 10.191406 26.011719 C 11.273438 26.242188 12.695312 26.011719 14.015625 25.402344 L 15.023438 24.957031 L 14.59375 24.609375 C 14.304688 24.378906 14.03125 24.277344 13.800781 24.320312 C 12.910156 24.480469 11.5 24.566406 11.5 24.449219 C 11.5 24.394531 11.859375 23.195312 12.308594 21.808594 C 14.03125 16.390625 13.960938 16.667969 13.789062 16.21875 C 13.601562 15.726562 13.242188 15.308594 13.011719 15.308594 C 12.925781 15.308594 12.492188 16.449219 12.078125 17.835938 C 11.257812 20.492188 11.140625 20.78125 10.984375 20.625 C 10.941406 20.566406 11.257812 19.382812 11.71875 17.980469 C 12.464844 15.683594 12.523438 15.394531 12.363281 15.003906 C 12.207031 14.628906 11.703125 14.183594 11.574219 14.328125 C 11.558594 14.355469 11.171875 15.539062 10.726562 16.96875 C 10.28125 18.386719 9.878906 19.582031 9.847656 19.628906 C 9.804688 19.65625 9.734375 19.640625 9.675781 19.582031 C 9.617188 19.539062 9.949219 18.371094 10.394531 17 C 11.257812 14.398438 11.273438 14.210938 10.738281 13.605469 C 10.410156 13.242188 10.207031 13.199219 10.207031 13.460938 C 10.207031 13.664062 8.625 18.660156 8.539062 18.761719 C 8.511719 18.789062 8.4375 18.789062 8.394531 18.730469 C 8.351562 18.6875 8.667969 17.503906 9.113281 16.101562 C 9.949219 13.519531 9.992188 13.199219 9.515625 12.664062 C 9.289062 12.40625 9.113281 12.347656 9.015625 12.519531 Z M 9.015625 12.519531 "/>
<path style=" stroke:none;fill-rule:nonzero;fill:rgb(0%,0%,0%);fill-opacity:1;" d="M 17.511719 19.292969 C 17.28125 19.410156 17.109375 19.554688 17.109375 19.613281 C 17.109375 19.671875 18.144531 20.421875 19.410156 21.289062 C 21.335938 22.617188 21.953125 23.109375 21.667969 23.109375 C 21.636719 23.109375 20.632812 22.429688 19.410156 21.589844 C 18.144531 20.722656 17.050781 20.074219 16.863281 20.074219 C 16.417969 20.074219 15.597656 20.492188 15.757812 20.652344 C 15.828125 20.710938 16.921875 21.460938 18.171875 22.328125 C 19.4375 23.179688 20.402344 23.902344 20.316406 23.929688 C 20.242188 23.960938 19.207031 23.324219 18.027344 22.53125 C 15.871094 21.070312 15.441406 20.898438 14.792969 21.230469 C 14.648438 21.316406 14.519531 21.433594 14.519531 21.503906 C 14.519531 21.5625 15.554688 22.328125 16.820312 23.179688 C 18.789062 24.523438 19.367188 24.984375 19.0625 24.984375 C 19.019531 24.984375 18 24.304688 16.777344 23.46875 C 15.542969 22.632812 14.421875 21.953125 14.246094 21.953125 C 13.917969 21.953125 13.226562 22.242188 13.226562 22.386719 C 13.226562 22.558594 13.65625 22.875 17.078125 25.1875 L 20.414062 27.441406 L 24.511719 27.441406 L 25.246094 26.949219 C 26.742188 25.9375 27.417969 24.320312 27.257812 22.183594 C 27.203125 21.476562 27.101562 20.796875 27.042969 20.679688 C 26.8125 20.261719 26.367188 20.984375 26.023438 22.355469 C 25.835938 23.09375 25.632812 23.683594 25.589844 23.683594 C 25.492188 23.683594 23.378906 22.269531 20.558594 20.304688 C 18.660156 18.992188 18.289062 18.863281 17.511719 19.292969 Z M 17.511719 19.292969 "/>
</g>
</svg>
