<?xml version="1.0" encoding="UTF-8"?>
<svg xmlns="http://www.w3.org/2000/svg" xmlns:xlink="http://www.w3.org/1999/xlink" width="35px" height="px" viewBox="0 0 35 35" version="1.1">
<g id="surface1">
<path style=" stroke:none;fill-rule:nonzero;fill:rgb(0%,0%,0%);fill-opacity:1;" d="M 8.847656 3.675781 C 7.390625 4.023438 6.554688 4.957031 6.203125 6.554688 C 5.851562 8.265625 6.339844 10.851562 7.390625 12.96875 C 8.128906 14.445312 8.167969 14.621094 7.933594 15.128906 C 7.738281 15.515625 7.371094 15.75 6.417969 16.082031 C 3.753906 17.015625 2.527344 17.539062 1.75 18.101562 C 0.679688 18.878906 0 20.320312 0 21.816406 L 0 22.945312 L 2.042969 22.945312 C 4.023438 22.945312 4.101562 22.925781 5.09375 22.285156 C 6.667969 21.292969 7.484375 20.921875 10.109375 20.027344 C 11.453125 19.5625 12.621094 19.132812 12.695312 19.054688 C 12.792969 18.976562 12.523438 18.179688 12.074219 17.285156 C 10.773438 14.582031 10.402344 12.96875 10.402344 9.917969 C 10.402344 7.582031 10.460938 7.175781 10.851562 6.320312 C 11.101562 5.773438 11.609375 5.035156 11.976562 4.648438 L 12.660156 3.945312 L 11.785156 3.714844 C 10.832031 3.480469 9.742188 3.460938 8.847656 3.675781 Z M 8.847656 3.675781 "/>
<path style=" stroke:none;fill-rule:nonzero;fill:rgb(0%,0%,0%);fill-opacity:1;" d="M 22.984375 3.675781 C 22.050781 3.910156 22.03125 4.023438 22.710938 4.726562 C 23.042969 5.054688 23.507812 5.773438 23.761719 6.320312 C 24.148438 7.175781 24.207031 7.582031 24.207031 9.917969 C 24.207031 12.949219 23.820312 14.640625 22.554688 17.226562 C 21.972656 18.414062 21.855469 18.820312 22.03125 18.976562 C 22.167969 19.113281 23.292969 19.5625 24.539062 19.988281 C 26.988281 20.84375 28.894531 21.738281 29.886719 22.476562 C 30.449219 22.90625 30.683594 22.945312 32.765625 22.945312 L 35.039062 22.945312 L 34.902344 21.816406 C 34.824219 21.214844 34.589844 20.300781 34.378906 19.773438 C 33.734375 18.296875 32.839844 17.714844 29.285156 16.449219 C 28.234375 16.0625 27.261719 15.671875 27.125 15.554688 C 26.542969 15.070312 26.601562 14.371094 27.320312 12.929688 C 28.214844 11.121094 28.660156 9.0625 28.523438 7.351562 C 28.371094 5.5625 27.785156 4.570312 26.484375 3.910156 C 25.917969 3.617188 23.800781 3.480469 22.984375 3.675781 Z M 22.984375 3.675781 "/>
<path style=" stroke:none;fill-rule:nonzero;fill:rgb(0%,0%,0%);fill-opacity:1;" d="M 15.128906 4.335938 C 14 4.667969 13.378906 5.054688 12.734375 5.910156 C 11.042969 8.128906 11.433594 12.949219 13.648438 17.109375 C 14.953125 19.582031 14.640625 20.046875 10.792969 21.3125 C 8.304688 22.128906 6.320312 23.082031 5.386719 23.917969 C 4.316406 24.851562 3.304688 27.628906 3.304688 29.691406 L 3.304688 30.140625 L 31.539062 30.140625 L 31.402344 28.855469 C 31.089844 25.878906 30.234375 24.324219 28.253906 23.179688 C 27.535156 22.75 26.054688 22.070312 24.984375 21.699219 C 23.917969 21.3125 22.652344 20.84375 22.167969 20.667969 C 20.320312 19.988281 19.988281 18.957031 21 17.070312 C 22.320312 14.640625 23.101562 11.257812 22.867188 8.964844 C 22.632812 6.6875 21.71875 5.230469 20.125 4.550781 C 19.09375 4.121094 16.3125 4.003906 15.128906 4.335938 Z M 15.128906 4.335938 "/>
</g>
</svg>
